<svg width="50" height="20" viewBox="0 0 50 20" fill="none" xmlns="http://www.w3.org/2000/svg">
<path d="M4.32812 19.33H0.671875L7.32884 0.420898H11.5575L18.2237 19.33H14.5675L9.51705 4.29874H9.36932L4.32812 19.33ZM4.44815 11.9159H14.4197V14.6673H4.44815V11.9159Z" fill="#E0E0E0"/>
<path d="M25.3977 19.5793C24.2836 19.5793 23.2865 19.2931 22.4062 18.7206C21.526 18.1482 20.8305 17.3172 20.3196 16.2277C19.8087 15.1382 19.5533 13.8148 19.5533 12.2575C19.5533 10.6818 19.8118 9.35224 20.3288 8.26891C20.852 7.17942 21.5568 6.35769 22.4432 5.80371C23.3295 5.24358 24.3175 4.96351 25.407 4.96351C26.2379 4.96351 26.9212 5.10509 27.4567 5.38823C27.9922 5.66522 28.4169 6.00068 28.7308 6.39462C29.0447 6.7824 29.2879 7.14865 29.4602 7.49334H29.5987V0.420898H32.9503V19.33H29.6634V17.0956H29.4602C29.2879 17.4403 29.0386 17.8066 28.7124 18.1943C28.3861 18.576 27.9553 18.9022 27.4197 19.173C26.8842 19.4439 26.2102 19.5793 25.3977 19.5793ZM26.3303 16.8371C27.0381 16.8371 27.6413 16.6463 28.1399 16.2646C28.6385 15.8769 29.017 15.3383 29.2756 14.6489C29.5341 13.9595 29.6634 13.1562 29.6634 12.2391C29.6634 11.3219 29.5341 10.5248 29.2756 9.84775C29.0232 9.17066 28.6477 8.64438 28.1491 8.26891C27.6567 7.89344 27.0504 7.7057 26.3303 7.7057C25.5855 7.7057 24.9638 7.89959 24.4652 8.28738C23.9666 8.67516 23.5911 9.21067 23.3388 9.89391C23.0864 10.5771 22.9602 11.3589 22.9602 12.2391C22.9602 13.1254 23.0864 13.9164 23.3388 14.6119C23.5973 15.3013 23.9759 15.8461 24.4744 16.2462C24.9792 16.6401 25.5978 16.8371 26.3303 16.8371Z" fill="#E0E0E0"/>
<path d="M41.7747 19.5793C40.6606 19.5793 39.6634 19.2931 38.7832 18.7206C37.903 18.1482 37.2074 17.3172 36.6966 16.2277C36.1857 15.1382 35.9302 13.8148 35.9302 12.2575C35.9302 10.6818 36.1887 9.35224 36.7058 8.26891C37.229 7.17942 37.9338 6.35769 38.8201 5.80371C39.7065 5.24358 40.6944 4.96351 41.7839 4.96351C42.6149 4.96351 43.2981 5.10509 43.8336 5.38823C44.3691 5.66522 44.7939 6.00068 45.1078 6.39462C45.4217 6.7824 45.6648 7.14865 45.8372 7.49334H45.9757V0.420898H49.3272V19.33H46.0403V17.0956H45.8372C45.6648 17.4403 45.4155 17.8066 45.0893 18.1943C44.7631 18.576 44.3322 18.9022 43.7967 19.173C43.2612 19.4439 42.5872 19.5793 41.7747 19.5793ZM42.7072 16.8371C43.4151 16.8371 44.0183 16.6463 44.5169 16.2646C45.0154 15.8769 45.394 15.3383 45.6525 14.6489C45.911 13.9595 46.0403 13.1562 46.0403 12.2391C46.0403 11.3219 45.911 10.5248 45.6525 9.84775C45.4002 9.17066 45.0247 8.64438 44.5261 8.26891C44.0337 7.89344 43.4274 7.7057 42.7072 7.7057C41.9624 7.7057 41.3407 7.89959 40.8422 8.28738C40.3436 8.67516 39.9681 9.21067 39.7157 9.89391C39.4634 10.5771 39.3372 11.3589 39.3372 12.2391C39.3372 13.1254 39.4634 13.9164 39.7157 14.6119C39.9743 15.3013 40.3528 15.8461 40.8514 16.2462C41.3561 16.6401 41.9747 16.8371 42.7072 16.8371Z" fill="#E0E0E0"/>
</svg>
