<svg width="20" height="20" viewBox="0 0 20 20" fill="none" xmlns="http://www.w3.org/2000/svg">
<path fill-rule="evenodd" clip-rule="evenodd" d="M16.0002 2.49868H4.00032C3.60302 2.49868 3.22199 2.65652 2.94106 2.93745C2.66013 3.21838 2.5023 3.5994 2.5023 3.9967V15.9966C2.5023 16.3939 2.66013 16.7749 2.94106 17.0558C3.22199 17.3368 3.60302 17.4946 4.00032 17.4946H16.0002C16.3975 17.4946 16.7785 17.3368 17.0594 17.0558C17.3404 16.7749 17.4982 16.3939 17.4982 15.9966V3.99886C17.4985 3.80196 17.4599 3.60691 17.3848 3.42491C17.3096 3.24292 17.1993 3.07755 17.0602 2.93822C16.9211 2.79888 16.7558 2.68834 16.5739 2.61293C16.3921 2.53751 16.1971 2.49868 16.0002 2.49868ZM4.00032 1.00066C3.20459 1.00066 2.44144 1.31678 1.87877 1.87945C1.3161 2.44212 1 3.20525 1 4.00099V16.0009C1.00019 16.7965 1.31637 17.5594 1.87902 18.1219C2.44167 18.6845 3.20471 19.0005 4.00032 19.0005H16.0002C16.3942 19.0009 16.7845 18.9237 17.1486 18.7731C17.5128 18.6225 17.8436 18.4016 18.1223 18.1229C18.4009 17.8443 18.6218 17.5135 18.7724 17.1493C18.923 16.7852 19.0003 16.3949 18.9998 16.0009V3.99886C18.9999 3.60489 18.9224 3.21473 18.7717 2.85072C18.621 2.48671 18.4 2.15594 18.1215 1.87733C17.8429 1.59871 17.5122 1.37771 17.1482 1.22692C16.7843 1.07613 16.3942 0.998535 16.0002 0.998535L4.00032 1.00066ZM10.0002 11.6473C10.1992 11.6471 10.3898 11.568 10.5304 11.4273C10.671 11.2866 10.75 11.0958 10.75 10.8969V5.64739C10.7563 5.54514 10.7416 5.44266 10.7068 5.34631C10.672 5.24995 10.6179 5.16173 10.5477 5.08709C10.4775 5.01245 10.3928 4.953 10.2988 4.91234C10.2048 4.87169 10.1034 4.85069 10.001 4.85069C9.89852 4.85069 9.79716 4.87169 9.70313 4.91234C9.6091 4.953 9.52439 5.01245 9.45422 5.08709C9.38405 5.16173 9.32989 5.24995 9.29511 5.34631C9.26032 5.44266 9.24564 5.54514 9.25195 5.64739V10.8969C9.25195 10.9954 9.27136 11.093 9.30908 11.1841C9.34679 11.2751 9.40206 11.3578 9.47175 11.4275C9.54143 11.4972 9.62416 11.5525 9.71521 11.5902C9.80625 11.6279 9.90384 11.6473 10.0024 11.6473H10.0002ZM10.5759 14.4871C10.4423 14.6259 10.2646 14.7139 10.0733 14.736C9.88191 14.7581 9.68882 14.7129 9.52714 14.6082C9.36545 14.5035 9.24525 14.3457 9.18715 14.1621C9.12905 13.9784 9.13667 13.7803 9.20871 13.6016C9.28075 13.423 9.41272 13.2749 9.58197 13.1829C9.75122 13.091 9.9472 13.0607 10.1363 13.0975C10.3254 13.1342 10.4958 13.2356 10.6183 13.3842C10.7409 13.5329 10.8078 13.7195 10.8077 13.9122C10.8099 14.0184 10.7905 14.1239 10.7506 14.2224C10.7107 14.3208 10.6513 14.4102 10.5759 14.485V14.4871Z" fill="#EB5757"/>
</svg>
