<svg width="20" height="20" viewBox="0 0 20 20" fill="none" xmlns="http://www.w3.org/2000/svg">
<g clip-path="url(#clip0_1858_39149)">
<path d="M18.6016 4.28719H16.4616H14.3501C14.3429 3.14584 13.8935 2.07583 13.0874 1.26975C12.2671 0.449406 11.1828 0 10.0343 0C8.87872 0 7.79443 0.449406 6.98122 1.26262C6.16801 2.07583 5.71861 3.14584 5.71147 4.28719H3.59998H1.45995C1.04621 4.28719 0.710938 4.62246 0.710938 5.0362C0.710938 5.44994 1.04621 5.78521 1.45995 5.78521H2.85097V17.8906C2.85097 18.4756 3.07924 19.0177 3.48584 19.4315C3.89958 19.8452 4.44172 20.0663 5.02666 20.0663H15.0277C15.6127 20.0663 16.1548 19.8381 16.5686 19.4315C16.9823 19.0177 17.2034 18.4756 17.2034 17.8906V5.78521H18.5944C19.0082 5.78521 19.3435 5.44994 19.3435 5.0362C19.3435 4.62246 19.0153 4.28719 18.6016 4.28719ZM8.03697 2.3255C8.57198 1.79049 9.27819 1.49802 10.0343 1.49802C10.7905 1.49802 11.4967 1.79049 12.0317 2.3255C12.5596 2.85337 12.852 3.54532 12.8592 4.28719H7.20949C7.21663 3.54532 7.5091 2.84624 8.03697 2.3255ZM15.7125 17.8906C15.7125 18.069 15.6412 18.2402 15.5128 18.3686C15.3844 18.497 15.2132 18.5683 15.0349 18.5683H5.0338C4.85546 18.5683 4.68426 18.497 4.55586 18.3686C4.42746 18.2402 4.35612 18.069 4.35612 17.8906V5.78521H6.45335C6.46048 5.78521 6.46048 5.78521 6.46762 5.78521C6.47475 5.78521 6.47475 5.78521 6.48188 5.78521H13.601C13.6082 5.78521 13.6082 5.78521 13.6153 5.78521C13.6224 5.78521 13.6224 5.78521 13.6296 5.78521H15.7268V17.8906H15.7125ZM8.63618 9.32339V15.0373C8.63618 15.451 8.30091 15.7863 7.88717 15.7863C7.47343 15.7863 7.13816 15.451 7.13816 15.0373V9.32339C7.13816 8.90965 7.47343 8.57438 7.88717 8.57438C8.30091 8.57438 8.63618 8.90965 8.63618 9.32339ZM12.9234 9.32339V15.0373C12.9234 15.451 12.5881 15.7863 12.1744 15.7863C11.7606 15.7863 11.4254 15.451 11.4254 15.0373V9.32339C11.4254 8.90965 11.7606 8.57438 12.1744 8.57438C12.5881 8.57438 12.9234 8.90965 12.9234 9.32339Z" fill="#828282"/>
</g>
<defs>
<clipPath id="clip0_1858_39149">
<rect width="20" height="20" fill="white"/>
</clipPath>
</defs>
</svg>
