<svg width="20" height="20" viewBox="0 0 20 20" fill="none" xmlns="http://www.w3.org/2000/svg">
<g clip-path="url(#clip0_4524_96837)">
<path d="M18.6236 11.2267C19.5182 9.92483 19.8677 8.3462 19.6352 6.60779C19.5097 5.67058 19.2336 4.7598 18.8177 3.91063C18.767 3.81474 18.696 3.73103 18.6098 3.66525C18.5235 3.59946 18.424 3.55319 18.3181 3.52965C18.2122 3.50611 18.1024 3.50584 17.9964 3.52888C17.8904 3.55193 17.7907 3.59774 17.7041 3.66312C17.2761 3.98484 16.8788 3.79863 15.6247 2.94048C14.4263 2.12085 12.7849 0.998047 10.4787 0.998047C8.04476 0.998047 6.1387 3.05105 5.36972 4.02833C4.60502 3.7594 3.24539 3.41843 2.10047 3.85713L2.20177 4.12035L2.09476 3.85856C0.764379 4.40355 0.434813 5.89586 0.421259 5.95864C-0.0203 8.03732 0.70232 10.0996 1.30723 11.3572C1.09002 11.6416 0.937608 11.97 0.860681 12.3195C0.752818 12.7972 0.751237 13.2928 0.856049 13.7712C0.960861 14.2496 1.1695 14.6991 1.46722 15.0879C1.76494 15.4767 2.14447 15.7954 2.57895 16.0214C3.01343 16.2474 3.49226 16.3751 3.98156 16.3956C4.41538 17.1939 5.05651 17.8604 5.83738 18.3249C6.61825 18.7894 7.50996 19.0347 8.41855 19.0349H11.6165C12.5251 19.0347 13.4168 18.7894 14.1976 18.3249C14.9785 17.8604 15.6196 17.1939 16.0535 16.3956C16.5428 16.3751 17.0216 16.2474 17.4561 16.0214C17.8905 15.7954 18.2701 15.4767 18.5678 15.0879C18.8655 14.6991 19.0742 14.2496 19.179 13.7712C19.2838 13.2928 19.2822 12.7972 19.1743 12.3195C19.0862 11.9145 18.8968 11.5385 18.6236 11.2267ZM1.88861 6.26895C1.92285 6.10773 2.15183 5.46715 2.64903 5.25243C3.50504 4.93214 4.86039 5.40651 5.31337 5.61694C5.4767 5.69332 5.66206 5.70842 5.8356 5.65944C6.00913 5.61046 6.15925 5.50068 6.25855 5.35017C6.27709 5.32164 8.16745 2.4968 10.4808 2.4968C12.3234 2.4968 13.6288 3.38989 14.7809 4.17814C15.3836 4.58973 15.9522 4.97922 16.5293 5.17682C16.9261 5.32188 17.3559 5.3518 17.7691 5.26313C17.955 5.77765 18.0849 6.31076 18.1564 6.85317C18.3347 8.25988 18.0501 9.47972 17.3132 10.4877C17.1563 10.4583 16.997 10.4435 16.8374 10.4434C16.7675 10.4434 16.6983 10.4463 16.6298 10.452C16.5802 10.3021 16.4845 10.1718 16.3564 10.0796C16.2283 9.98732 16.0744 9.9379 15.9165 9.93838C10.2005 9.93838 7.41916 7.4096 7.39419 7.38605C7.28793 7.28516 7.15442 7.21764 7.01018 7.19187C6.86594 7.1661 6.71731 7.1832 6.58269 7.24105C6.44807 7.29891 6.33338 7.39498 6.25281 7.51737C6.17225 7.63976 6.12935 7.78311 6.12943 7.92963C6.12811 8.46142 5.91628 8.97102 5.54024 9.34705C5.16421 9.72308 4.65458 9.93494 4.1228 9.93626C3.96494 9.93577 3.81097 9.98516 3.68286 10.0774C3.55476 10.1696 3.45907 10.3 3.40945 10.4498C3.33812 10.4441 3.27249 10.4413 3.20258 10.4413C2.99059 10.4409 2.7794 10.4675 2.57413 10.5205C2.08692 9.45332 1.55476 7.82974 1.88861 6.26895ZM15.1689 13.9902C15.1683 14.9316 14.7941 15.8342 14.1284 16.4997C13.4627 17.1653 12.56 17.5394 11.6186 17.5398H8.42069C7.47939 17.5392 6.57679 17.1651 5.91112 16.4995C5.24545 15.834 4.87114 14.9315 4.87038 13.9902V11.3508C4.93743 11.3366 5.00378 11.3194 5.06869 11.3009C5.58713 11.1544 6.06507 10.891 6.46575 10.5309C6.86643 10.1708 7.17917 9.72354 7.37992 9.22361C8.32795 9.82638 9.94796 10.6403 12.2713 11.0926C12.6337 11.163 13.0141 11.2238 13.4127 11.2752C13.8806 11.3351 14.3728 11.3801 14.89 11.4057C14.9827 11.4107 15.0769 11.4143 15.1753 11.4179L15.1689 13.9902ZM2.27881 13.0571C2.27882 12.9201 2.2939 12.7835 2.32375 12.6498C2.36217 12.4611 2.45959 12.2895 2.60195 12.1597L2.77387 12.042C2.90631 11.9742 3.05306 11.939 3.20187 11.9393C3.25856 11.9393 3.31513 11.9443 3.37094 11.9543V13.9902C3.37097 14.25 3.391 14.5095 3.43085 14.7663C3.09036 14.6287 2.79875 14.3924 2.59348 14.0879C2.38821 13.7833 2.27863 13.4244 2.27881 13.0571ZM16.607 14.7692C16.6469 14.5124 16.6669 14.2529 16.6669 13.993V11.9572C16.723 11.9472 16.7798 11.9422 16.8367 11.9422C17.044 11.9377 17.2462 12.007 17.4073 12.1376C17.5683 12.2682 17.6778 12.4518 17.7163 12.6555C17.7461 12.7892 17.7612 12.9258 17.7612 13.0628C17.7601 13.4295 17.6496 13.7874 17.4439 14.0909C17.2381 14.3944 16.9465 14.6296 16.6063 14.7663L16.607 14.7692ZM11.3411 14.655C11.4107 14.7246 11.4659 14.8072 11.5035 14.898C11.5411 14.9889 11.5605 15.0863 11.5605 15.1847C11.5605 15.283 11.5411 15.3804 11.5035 15.4713C11.4659 15.5622 11.4107 15.6448 11.3411 15.7143C10.9907 16.0635 10.5161 16.2596 10.0214 16.2596C9.52673 16.2596 9.05218 16.0635 8.70175 15.7143C8.57284 15.572 8.50354 15.3855 8.50816 15.1935C8.51279 15.0015 8.591 14.8187 8.72662 14.6827C8.86224 14.5467 9.04491 14.468 9.23689 14.4628C9.42887 14.4577 9.6155 14.5265 9.75821 14.655C9.79253 14.6894 9.83328 14.7166 9.87814 14.7352C9.923 14.7538 9.97108 14.7634 10.0196 14.7634C10.0682 14.7634 10.1163 14.7538 10.1612 14.7352C10.206 14.7166 10.2468 14.6894 10.2811 14.655C10.3507 14.5853 10.4333 14.5301 10.5242 14.4924C10.6152 14.4546 10.7127 14.4353 10.8111 14.4353C10.9096 14.4353 11.007 14.4546 11.098 14.4924C11.1889 14.5301 11.2716 14.5853 11.3411 14.655ZM13.1202 12.0798V12.7618C13.1202 12.9604 13.0413 13.151 12.9008 13.2914C12.7603 13.4319 12.5698 13.5108 12.3712 13.5108C12.1725 13.5108 11.982 13.4319 11.8416 13.2914C11.7011 13.151 11.6222 12.9604 11.6222 12.7618V12.0798C11.6222 11.8812 11.7011 11.6907 11.8416 11.5502C11.982 11.4098 12.1725 11.3308 12.3712 11.3308C12.5698 11.3308 12.7603 11.4098 12.9008 11.5502C13.0413 11.6907 13.1202 11.8812 13.1202 12.0798ZM8.41855 12.0798V12.7618C8.41855 12.9604 8.33963 13.151 8.19917 13.2914C8.0587 13.4319 7.86819 13.5108 7.66954 13.5108C7.47089 13.5108 7.28037 13.4319 7.13991 13.2914C6.99944 13.151 6.92053 12.9604 6.92053 12.7618V12.0798C6.92053 11.8812 6.99944 11.6907 7.13991 11.5502C7.28037 11.4098 7.47089 11.3308 7.66954 11.3308C7.86819 11.3308 8.0587 11.4098 8.19917 11.5502C8.33963 11.6907 8.41855 11.8812 8.41855 12.0798Z" fill="#828282"/>
</g>
<defs>
<clipPath id="clip0_4524_96837">
<rect width="20" height="20" fill="white"/>
</clipPath>
</defs>
</svg>
