<svg width="17" height="17" viewBox="0 0 17 17" fill="none" xmlns="http://www.w3.org/2000/svg">
<path fill-rule="evenodd" clip-rule="evenodd" d="M8.83427 2.50271C7.57895 2.49832 6.37331 2.9928 5.48256 3.87734C4.59181 4.76188 4.08894 5.96404 4.08455 7.21935C4.08016 8.47467 4.57462 9.68032 5.45916 10.5711C6.3437 11.4618 7.54586 11.9647 8.80117 11.9691H8.86794C10.1233 11.9646 11.3254 11.4616 12.2099 10.5708C13.0944 9.68004 13.5887 8.47436 13.5843 7.21905C13.5798 5.96373 13.0769 4.7616 12.1861 3.87712C11.2953 2.99263 10.0896 2.49824 8.83427 2.50271ZM9.43462 13.1395C10.949 12.9858 12.3464 12.2562 13.338 11.1014C14.3297 9.94667 14.8398 8.45504 14.7628 6.93485C14.6859 5.41467 14.0278 3.98214 12.9247 2.93339C11.8215 1.88463 10.3575 1.2998 8.83541 1.2998C7.31328 1.2998 5.84933 1.88463 4.74616 2.93339C3.64298 3.98214 2.98492 5.41467 2.90798 6.93485C2.83105 8.45504 3.34112 9.94667 4.33277 11.1014C5.32443 12.2562 6.72185 12.9858 8.2362 13.1395V14.6347H5.50267C5.35014 14.6441 5.20695 14.7113 5.10227 14.8227C4.9976 14.934 4.93933 15.0811 4.93933 15.2339C4.93933 15.3867 4.9976 15.5338 5.10227 15.6451C5.20695 15.7564 5.35014 15.8237 5.50267 15.8331H12.1693C12.3218 15.8237 12.465 15.7564 12.5697 15.6451C12.6744 15.5338 12.7326 15.3867 12.7326 15.2339C12.7326 15.0811 12.6744 14.934 12.5697 14.8227C12.465 14.7113 12.3218 14.6441 12.1693 14.6347H9.43633L9.43462 13.1395ZM8.83484 5.83488C8.55797 5.83488 8.28732 5.917 8.05712 6.07082C7.82691 6.22464 7.64749 6.44327 7.54154 6.69906C7.43558 6.95485 7.40786 7.23629 7.46187 7.50784C7.51588 7.77939 7.64921 8.02884 7.84499 8.22461C8.04076 8.42039 8.2902 8.55371 8.56174 8.60773C8.83329 8.66174 9.11475 8.63401 9.37054 8.52806C9.62634 8.42211 9.84497 8.24268 9.99879 8.01248C10.1526 7.78227 10.2347 7.51163 10.2347 7.23476C10.234 6.86384 10.0861 6.50835 9.82352 6.24634C9.56097 5.98432 9.20519 5.83717 8.83427 5.83717L8.83484 5.83488ZM6.23484 7.23476C6.2353 6.72061 6.38819 6.21811 6.67418 5.79083C6.96017 5.36355 7.36642 5.03067 7.84158 4.83425C8.31674 4.63783 8.83947 4.5867 9.34368 4.68732C9.8479 4.78795 10.311 5.03581 10.6743 5.39958C11.0377 5.76334 11.285 6.22667 11.3851 6.73099C11.4852 7.23532 11.4335 7.758 11.2365 8.23294C11.0396 8.70789 10.7063 9.11376 10.2787 9.39929C9.85107 9.68481 9.34843 9.83713 8.83427 9.83702C8.14491 9.83671 7.48388 9.56267 6.99653 9.07511C6.50919 8.58754 6.23542 7.92641 6.23542 7.23705L6.23484 7.23476Z" fill="#828282"/>
</svg>
