<svg width="16" height="16" viewBox="0 0 16 16" fill="none" xmlns="http://www.w3.org/2000/svg">
<path d="M1.76198 9.65877L4.20447 12.2491C4.36259 12.4212 4.55474 12.5586 4.76874 12.6527C4.98275 12.7467 5.21394 12.7952 5.44769 12.7952C5.68143 12.7952 5.91263 12.7467 6.12663 12.6527C6.34064 12.5586 6.53278 12.4212 6.6909 12.2491L14.2329 4.24878C14.3414 4.12727 14.4001 3.96941 14.3975 3.80657C14.3948 3.64373 14.331 3.48786 14.2187 3.36994C14.1661 3.31476 14.1029 3.27083 14.0329 3.24082C13.9628 3.2108 13.8874 3.19531 13.8112 3.19531C13.735 3.19531 13.6596 3.2108 13.5896 3.24082C13.5195 3.27083 13.4563 3.31476 13.4037 3.36994L5.86171 11.3697C5.80905 11.4271 5.74503 11.4729 5.67371 11.5043C5.60239 11.5357 5.52532 11.5519 5.4474 11.5519C5.36949 11.5519 5.29242 11.5357 5.2211 11.5043C5.14977 11.4729 5.08575 11.4271 5.03309 11.3697L2.59117 8.77937C2.53736 8.72297 2.47243 8.67835 2.40048 8.64835C2.32853 8.61834 2.25114 8.6036 2.1732 8.60504C2.09526 8.60649 2.01846 8.6241 1.94768 8.65676C1.8769 8.68942 1.81366 8.73642 1.76198 8.79478C1.65613 8.91378 1.59766 9.06751 1.59766 9.22678C1.59766 9.38605 1.65613 9.53977 1.76198 9.65877Z" fill="#BDBDBD"/>
</svg>
