<svg width="20" height="20" viewBox="0 0 20 20" fill="none" xmlns="http://www.w3.org/2000/svg">
<path d="M10.0189 1.00001C7.93427 0.997676 5.91335 1.71837 4.30061 3.03924C2.68786 4.36011 1.58311 6.1994 1.17464 8.24362C0.766181 10.2878 1.07929 12.4104 2.06061 14.2496C3.04193 16.0888 4.63072 17.5308 6.55616 18.3297C8.48161 19.1287 10.6245 19.2351 12.6197 18.631C14.6148 18.0268 16.3387 16.7495 17.4975 15.0166C18.6563 13.2837 19.1783 11.2026 18.9745 9.12798C18.7706 7.05335 17.8536 5.1136 16.3798 3.63938C14.6932 1.9511 12.4052 1.00173 10.0189 1.00001ZM10.0189 17.4996C8.28136 17.5016 6.59691 16.901 5.25268 15.8C3.90845 14.6991 2.98764 13.166 2.6472 11.4622C2.30677 9.7583 2.56778 7.98912 3.38576 6.45617C4.20373 4.92321 5.52802 3.72139 7.13291 3.05554C8.7378 2.3897 10.5239 2.30106 12.1869 2.80472C13.8498 3.30839 15.2866 4.37318 16.2523 5.81761C17.2181 7.26204 17.653 8.99671 17.4829 10.7259C17.3129 12.4551 16.5484 14.0718 15.3197 15.3004C14.6239 15.9972 13.7976 16.55 12.8881 16.9273C11.9786 17.3047 11.0036 17.4992 10.0189 17.4996ZM10.0189 5.49978C9.81998 5.49978 9.62922 5.57874 9.4885 5.71932C9.34779 5.8599 9.26864 6.0506 9.26845 6.2495V9.49379L6.74037 11.0774C6.57123 11.1831 6.45099 11.3516 6.40611 11.5459C6.36123 11.7402 6.39538 11.9444 6.50104 12.1135C6.6067 12.2827 6.77523 12.4029 6.96954 12.4478C7.16385 12.4927 7.36803 12.4585 7.53716 12.3529L10.4169 10.5524C10.5255 10.4844 10.6149 10.3896 10.6765 10.2772C10.738 10.1648 10.7698 10.0385 10.7686 9.91038V6.25092C10.7684 6.05214 10.6894 5.86156 10.5488 5.721C10.4083 5.58044 10.2177 5.5014 10.0189 5.50121V5.49978Z" fill="#828282"/>
</svg>
