<svg width="20" height="20" viewBox="0 0 20 20" fill="none" xmlns="http://www.w3.org/2000/svg">
<path d="M7.5 9.375C9.22589 9.375 10.625 7.97589 10.625 6.25C10.625 4.52411 9.22589 3.125 7.5 3.125C5.77411 3.125 4.375 4.52411 4.375 6.25C4.375 7.97589 5.77411 9.375 7.5 9.375Z" stroke="#828282" stroke-width="1.35" stroke-linecap="round" stroke-linejoin="round"/>
<path d="M1.875 18.1254H7.5H13.125V17.4478C13.115 16.495 12.8638 15.5603 12.3947 14.731C11.9255 13.9017 11.2539 13.2048 10.4424 12.7054C9.63094 12.206 8.70614 11.9205 7.7544 11.8754C7.66954 11.8714 7.58472 11.8693 7.5 11.8691C7.41528 11.8693 7.33046 11.8714 7.2456 11.8754C6.29386 11.9205 5.36906 12.206 4.55759 12.7054C3.74612 13.2048 3.07446 13.9017 2.60534 14.731C2.13622 15.5603 1.88495 16.495 1.875 17.4478V18.1254Z" stroke="#828282" stroke-width="1.35" stroke-linecap="round" stroke-linejoin="round"/>
<path d="M12.5 9.375C14.2259 9.375 15.625 7.97589 15.625 6.25C15.625 4.52411 14.2259 3.125 12.5 3.125" stroke="#828282" stroke-width="1.35" stroke-linecap="round" stroke-linejoin="round"/>
<path d="M15.625 18.1249H18.125V17.4472C18.115 16.4945 17.8638 15.5598 17.3947 14.7305C16.9255 13.9011 16.2539 13.2042 15.4424 12.7049C14.9178 12.3821 14.3459 12.1486 13.75 12.0117" stroke="#828282" stroke-width="1.35" stroke-linecap="round" stroke-linejoin="round"/>
</svg>
