<svg width="16" height="17" viewBox="0 0 16 17" fill="none" xmlns="http://www.w3.org/2000/svg">
<path fill-rule="evenodd" clip-rule="evenodd" d="M4.43848 1.0473C5.31081 0.685974 6.24577 0.5 7.18997 0.5C8.13416 0.5 9.06912 0.685974 9.94145 1.0473C10.8138 1.40863 11.6064 1.93824 12.274 2.60589C12.9417 3.27354 13.4713 4.06616 13.8326 4.93848C14.194 5.81081 14.3799 6.74577 14.3799 7.68997C14.3799 8.63417 14.194 9.56912 13.8326 10.4414C13.5621 11.0947 13.1971 11.7032 12.7505 12.248L15.7924 15.2899C16.0692 15.5667 16.0692 16.0156 15.7924 16.2924C15.5156 16.5692 15.0667 16.5692 14.7899 16.2924L11.7481 13.2505C10.4684 14.2995 8.8591 14.8799 7.18997 14.8799C5.28307 14.8799 3.45427 14.1224 2.10589 12.774C0.757512 11.4257 0 9.59686 0 7.68997C0 5.78307 0.757512 3.95427 2.10589 2.60589C2.77354 1.93824 3.56616 1.40863 4.43848 1.0473ZM7.18997 1.91771C6.43194 1.91771 5.68134 2.06701 4.98102 2.35709C4.28069 2.64718 3.64437 3.07236 3.10836 3.60836C2.02585 4.69087 1.41771 6.15907 1.41771 7.68997C1.41771 9.22086 2.02585 10.6891 3.10836 11.7716C4.19087 12.8541 5.65907 13.4622 7.18997 13.4622C8.72086 13.4622 10.1891 12.8541 11.2716 11.7716C11.8076 11.2356 12.2328 10.5992 12.5228 9.89891C12.8129 9.19859 12.9622 8.44799 12.9622 7.68997C12.9622 6.93194 12.8129 6.18134 12.5228 5.48102C12.2328 4.7807 11.8076 4.14437 11.2716 3.60836C10.7356 3.07236 10.0992 2.64718 9.39891 2.35709C8.69859 2.06701 7.94799 1.91771 7.18997 1.91771Z" fill="#828282"/>
</svg>
