<svg width="12" height="12" viewBox="0 0 12 12" fill="none" xmlns="http://www.w3.org/2000/svg">
<path fill-rule="evenodd" clip-rule="evenodd" d="M2.16101 1.55468C2.12121 1.51491 2.07397 1.48337 2.02198 1.46185C1.96999 1.44034 1.91427 1.42927 1.858 1.42929C1.80174 1.42931 1.74602 1.4404 1.69405 1.46195C1.64207 1.4835 1.59485 1.51508 1.55508 1.55488C1.51531 1.59468 1.48376 1.64194 1.46225 1.69393C1.44073 1.74592 1.42967 1.80163 1.42969 1.85789C1.42971 1.91416 1.44081 1.96988 1.46236 2.02186C1.48391 2.07383 1.51548 2.12105 1.55528 2.16082L5.25203 5.85757L1.55528 9.55431C1.47491 9.63464 1.42973 9.74361 1.42969 9.85725C1.42965 9.97088 1.47476 10.0799 1.55508 10.1603C1.6354 10.2406 1.74437 10.2858 1.858 10.2858C1.97164 10.2859 2.08063 10.2408 2.16101 10.1605L5.85817 6.46371L9.55369 10.1605C9.63407 10.241 9.74315 10.2863 9.85694 10.2864C9.97073 10.2865 10.0799 10.2414 10.1604 10.1611C10.241 10.0807 10.2863 9.97161 10.2864 9.85782C10.2865 9.74403 10.2414 9.63485 10.1611 9.55431L6.46431 5.85757L10.1611 2.16082C10.2009 2.12094 10.2324 2.07361 10.2539 2.02154C10.2754 1.96946 10.2865 1.91366 10.2864 1.85731C10.2864 1.80097 10.2752 1.7452 10.2536 1.69317C10.232 1.64114 10.2003 1.59386 10.1604 1.55406C10.1206 1.51426 10.0732 1.48272 10.0212 1.46121C9.96908 1.4397 9.91328 1.42865 9.85694 1.42871C9.8006 1.42877 9.74482 1.43992 9.69279 1.46153C9.64076 1.48315 9.59349 1.5148 9.55369 1.55468L5.85695 5.25143L2.16101 1.55468Z" fill="#7D98F6"/>
</svg>
