<svg width="20" height="20" viewBox="0 0 20 20" fill="none" xmlns="http://www.w3.org/2000/svg">
<g clip-path="url(#clip0_3013_207283)">
<path d="M18.6055 4.28719H16.4655H14.354C14.3468 3.14584 13.8974 2.07583 13.0913 1.26975C12.271 0.449406 11.1867 0 10.0382 0C8.88262 0 7.79834 0.449406 6.98513 1.26262C6.17192 2.07583 5.72251 3.14584 5.71538 4.28719H3.60388H1.46385C1.05011 4.28719 0.714844 4.62246 0.714844 5.0362C0.714844 5.44994 1.05011 5.78521 1.46385 5.78521H2.85487V17.8906C2.85487 18.4756 3.08314 19.0177 3.48975 19.4315C3.90349 19.8452 4.44563 20.0663 5.03057 20.0663H15.0316C15.6166 20.0663 16.1587 19.8381 16.5725 19.4315C16.9862 19.0177 17.2073 18.4756 17.2073 17.8906V5.78521H18.5984C19.0121 5.78521 19.3474 5.44994 19.3474 5.0362C19.3474 4.62246 19.0192 4.28719 18.6055 4.28719ZM8.04088 2.3255C8.57588 1.79049 9.28209 1.49802 10.0382 1.49802C10.7944 1.49802 11.5006 1.79049 12.0356 2.3255C12.5635 2.85337 12.8559 3.54532 12.8631 4.28719H7.2134C7.22053 3.54532 7.513 2.84624 8.04088 2.3255ZM15.7164 17.8906C15.7164 18.069 15.6451 18.2402 15.5167 18.3686C15.3883 18.497 15.2171 18.5683 15.0388 18.5683H5.0377C4.85937 18.5683 4.68816 18.497 4.55976 18.3686C4.43136 18.2402 4.36003 18.069 4.36003 17.8906V5.78521H6.45726C6.46439 5.78521 6.46439 5.78521 6.47152 5.78521C6.47866 5.78521 6.47866 5.78521 6.48579 5.78521H13.605C13.6121 5.78521 13.6121 5.78521 13.6192 5.78521C13.6264 5.78521 13.6264 5.78521 13.6335 5.78521H15.7307V17.8906H15.7164ZM8.64009 9.32339V15.0373C8.64009 15.451 8.30481 15.7863 7.89108 15.7863C7.47734 15.7863 7.14207 15.451 7.14207 15.0373V9.32339C7.14207 8.90965 7.47734 8.57438 7.89108 8.57438C8.30481 8.57438 8.64009 8.90965 8.64009 9.32339ZM12.9273 9.32339V15.0373C12.9273 15.451 12.592 15.7863 12.1783 15.7863C11.7645 15.7863 11.4293 15.451 11.4293 15.0373V9.32339C11.4293 8.90965 11.7645 8.57438 12.1783 8.57438C12.592 8.57438 12.9273 8.90965 12.9273 9.32339Z" fill="#828282"/>
</g>
<defs>
<clipPath id="clip0_3013_207283">
<rect width="20" height="20" fill="white"/>
</clipPath>
</defs>
</svg>
