<svg width="16" height="16" viewBox="0 0 16 16" fill="none" xmlns="http://www.w3.org/2000/svg">
<path d="M7.81745 7.83149L6.70007 8.91577C6.60852 9.00724 6.49969 9.07959 6.37993 9.12863C6.1976 9.20256 5.99753 9.22115 5.8047 9.18207C5.61187 9.143 5.43481 9.04799 5.29564 8.90891L4.88704 8.51687C4.83023 8.46227 4.78474 8.39702 4.75315 8.32484C4.72156 8.25266 4.70449 8.17498 4.70293 8.09621C4.70137 8.01743 4.71534 7.93912 4.74404 7.86575C4.77274 7.79237 4.81561 7.72537 4.8702 7.66856C4.9248 7.61176 4.99005 7.56626 5.06223 7.53467C5.13441 7.50308 5.2121 7.48601 5.29087 7.48444C5.36965 7.48288 5.44796 7.49686 5.52133 7.52556C5.59471 7.55426 5.6617 7.59712 5.71851 7.65172L6.00385 7.9245L6.98655 6.97205C7.10121 6.86411 7.25373 6.80559 7.41116 6.80914C7.56859 6.81268 7.71832 6.878 7.82801 6.99098C7.9377 7.10397 7.99855 7.25556 7.99743 7.41303C7.99631 7.5705 7.9333 7.72122 7.82201 7.83263L7.81745 7.83149ZM10.3998 11.001H8.59984C8.44545 11.0078 8.29961 11.0738 8.19274 11.1855C8.08588 11.2971 8.02622 11.4457 8.02622 11.6002C8.02622 11.7548 8.08588 11.9033 8.19274 12.015C8.29961 12.1266 8.44545 12.1927 8.59984 12.1994H10.3998C10.4806 12.203 10.5614 12.1901 10.6372 12.1615C10.713 12.133 10.7822 12.0895 10.8407 12.0335C10.8992 11.9775 10.9457 11.9102 10.9775 11.8358C11.0093 11.7613 11.0257 11.6812 11.0257 11.6002C11.0257 11.5193 11.0093 11.4391 10.9775 11.3647C10.9457 11.2902 10.8992 11.223 10.8407 11.167C10.7822 11.111 10.713 11.0674 10.6372 11.0389C10.5614 11.0104 10.4806 10.9975 10.3998 11.001ZM10.3998 3.80081H8.59984C8.44732 3.81023 8.30413 3.87746 8.19945 3.9888C8.09478 4.10014 8.0365 4.2472 8.0365 4.40002C8.0365 4.55283 8.09478 4.69991 8.19945 4.81125C8.30413 4.92258 8.44732 4.9898 8.59984 4.99922H10.3998C10.4816 5.00427 10.5635 4.99253 10.6406 4.9647C10.7177 4.93687 10.7883 4.89355 10.848 4.83741C10.9077 4.78127 10.9553 4.71351 10.9878 4.63829C11.0203 4.56306 11.0371 4.48197 11.0371 4.40002C11.0371 4.31806 11.0203 4.23698 10.9878 4.16176C10.9553 4.08653 10.9077 4.01876 10.848 3.96262C10.7883 3.90648 10.7177 3.86317 10.6406 3.83535C10.5635 3.80752 10.4816 3.79576 10.3998 3.80081ZM10.3998 7.40063H9.20134C9.04881 7.41004 8.90561 7.47728 8.80094 7.58862C8.69626 7.69995 8.63799 7.84702 8.63799 7.99983C8.63799 8.15265 8.69626 8.29971 8.80094 8.41105C8.90561 8.52239 9.04881 8.58962 9.20134 8.59904H10.3998C10.4816 8.60409 10.5635 8.59235 10.6406 8.56452C10.7177 8.53669 10.7883 8.49337 10.848 8.43723C10.9077 8.38109 10.9553 8.31333 10.9878 8.23811C11.0203 8.16288 11.0371 8.08179 11.0371 7.99983C11.0371 7.91788 11.0203 7.83679 10.9878 7.76156C10.9553 7.68634 10.9077 7.61857 10.848 7.56244C10.7883 7.5063 10.7177 7.46298 10.6406 7.43515C10.5635 7.40732 10.4816 7.39557 10.3998 7.40063ZM5.89884 10.7008C5.78134 10.7012 5.66504 10.7244 5.55644 10.7693C5.44738 10.8149 5.34817 10.8812 5.26426 10.9645C5.18098 11.0483 5.11487 11.1475 5.06965 11.2567C5.02456 11.3652 5.00129 11.4816 5.00118 11.5991C5.00129 11.7771 5.05417 11.951 5.15312 12.0989C5.25208 12.2468 5.39267 12.3621 5.55712 12.4301C5.72158 12.4982 5.90251 12.5159 6.07705 12.4811C6.25158 12.4463 6.41189 12.3606 6.53769 12.2347C6.66349 12.1088 6.74915 11.9484 6.78383 11.7739C6.81851 11.5993 6.80065 11.4184 6.73252 11.254C6.66439 11.0896 6.54904 10.949 6.40106 10.8502C6.25307 10.7513 6.0791 10.6986 5.90113 10.6986L5.89884 10.7008ZM5.89884 5.30111C6.07689 5.30082 6.25086 5.24784 6.39883 5.14882C6.5468 5.0498 6.66214 4.90918 6.73031 4.7447C6.80401 4.56628 6.81838 4.36888 6.7713 4.18167C6.72421 3.99445 6.61818 3.82733 6.46884 3.70499C6.31951 3.58265 6.1348 3.51158 5.94198 3.50226C5.74916 3.49294 5.55844 3.54586 5.39801 3.65322C5.23757 3.76058 5.11591 3.91669 5.05098 4.09849C4.98606 4.28029 4.98132 4.47816 5.03746 4.66287C5.09359 4.84757 5.20763 5.00933 5.36274 5.12425C5.51784 5.23918 5.7058 5.30118 5.89884 5.30111ZM14.0024 3.80081V12.2006C14.0015 12.996 13.6852 13.7585 13.1227 14.3209C12.5603 14.8833 11.7978 15.1997 11.0024 15.2006H5.00003C4.20465 15.1997 3.44211 14.8833 2.87969 14.3209C2.31727 13.7585 2.00091 12.996 2 12.2006V3.80081C2.00091 3.00543 2.31727 2.24288 2.87969 1.68046C3.44211 1.11804 4.20465 0.801687 5.00003 0.800781H10.9995C11.7954 0.800932 12.5587 1.11696 13.1217 1.67946C13.6848 2.24196 14.0015 3.00493 14.0024 3.80081ZM12.804 3.80081C12.8033 3.32357 12.6133 2.86612 12.2758 2.52872C11.9383 2.19131 11.4808 2.00152 11.0035 2.00091H5.00003C4.52285 2.00152 4.06539 2.19134 3.72798 2.52876C3.39056 2.86617 3.20073 3.32363 3.20012 3.80081V12.2006C3.20073 12.6778 3.39054 13.1353 3.72794 13.4728C4.06534 13.8103 4.5228 14.0003 5.00003 14.001H10.9995C11.4769 14.0004 11.9345 13.8106 12.272 13.473C12.6095 13.1355 12.7994 12.6779 12.8 12.2006L12.804 3.80081Z" fill="#828282"/>
</svg>
