<svg width="21" height="20" viewBox="0 0 21 20" fill="none" xmlns="http://www.w3.org/2000/svg">
<path fill-rule="evenodd" clip-rule="evenodd" d="M10.2987 17.1842C10.1583 17.0437 10.0793 16.8533 10.0791 16.6547C10.0786 16.5564 10.0975 16.4589 10.1347 16.3678C10.172 16.2768 10.2267 16.1939 10.296 16.1241C10.3652 16.0542 10.4475 15.9986 10.5382 15.9605C10.6289 15.9225 10.7262 15.9026 10.8245 15.9022H15.0211C15.2645 15.902 15.4978 15.8052 15.6699 15.633C15.8419 15.4609 15.9385 15.2275 15.9385 14.9841V4.98445C15.9385 4.74109 15.8419 4.50768 15.6699 4.33553C15.4978 4.16338 15.2645 4.06657 15.0211 4.06638H10.8245C10.6259 4.06638 10.4354 3.98746 10.2949 3.847C10.1544 3.70653 10.0755 3.51602 10.0755 3.31737C10.0755 3.11872 10.1544 2.9282 10.2949 2.78774C10.4354 2.64727 10.6259 2.56836 10.8245 2.56836H15.0211C15.6618 2.56855 16.2762 2.82318 16.7291 3.27627C17.1821 3.72935 17.4365 4.34379 17.4365 4.98445V14.9877C17.4365 15.6283 17.1821 16.2428 16.7291 16.6958C16.2762 17.1489 15.6618 17.4036 15.0211 17.4038H10.8281C10.6295 17.4036 10.4391 17.3246 10.2987 17.1842ZM12.5938 10.4351C12.6016 10.4251 12.6095 10.4144 12.6166 10.4037C12.6202 10.3984 12.6236 10.3928 12.627 10.3873C12.6303 10.3818 12.6337 10.3763 12.6373 10.3709C12.6444 10.3602 12.6494 10.3509 12.6544 10.3409C12.6605 10.3298 12.6659 10.3184 12.6708 10.3067C12.6725 10.3031 12.6742 10.2996 12.676 10.296C12.6795 10.2889 12.6829 10.2818 12.6858 10.2746C12.6905 10.2637 12.6945 10.2525 12.6979 10.2411C12.6995 10.2366 12.7012 10.2323 12.7028 10.2279C12.7057 10.2205 12.7085 10.2131 12.7108 10.2054C12.7133 10.1968 12.7151 10.1893 12.717 10.1815C12.7177 10.1784 12.7185 10.1752 12.7193 10.1719C12.72 10.1691 12.7208 10.1662 12.7215 10.1633C12.7239 10.1539 12.7264 10.1438 12.7286 10.1341C12.7312 10.1214 12.7331 10.1085 12.7343 10.0956C12.7367 10.0845 12.7383 10.0733 12.7393 10.062V9.9907V9.91936C12.7383 9.90834 12.7366 9.89738 12.7343 9.88655C12.7331 9.87338 12.7312 9.86028 12.7286 9.84731C12.7286 9.83787 12.7255 9.82882 12.7225 9.81987C12.7214 9.81665 12.7203 9.81344 12.7193 9.81023C12.7176 9.80441 12.7164 9.79893 12.7152 9.79354C12.7139 9.78767 12.7126 9.78192 12.7108 9.77598C12.7072 9.76456 12.7029 9.75244 12.6986 9.74102C12.6972 9.73722 12.6959 9.73342 12.6945 9.72962C12.6918 9.72201 12.6891 9.7144 12.6858 9.70679C12.6849 9.7047 12.684 9.70266 12.6831 9.70066C12.6792 9.6917 12.6756 9.68343 12.6715 9.67469C12.6665 9.66399 12.6608 9.65186 12.6544 9.64045C12.648 9.62904 12.643 9.62047 12.6373 9.6112C12.6355 9.60834 12.6336 9.60507 12.6316 9.6016C12.6271 9.59384 12.622 9.58507 12.6166 9.57768L12.5938 9.54628C12.5913 9.54296 12.5892 9.53992 12.5871 9.53702C12.5826 9.53058 12.5785 9.52486 12.5731 9.51846C12.5652 9.50919 12.5424 9.4828 12.5253 9.46568L9.48147 6.42185C9.34099 6.28137 9.15047 6.20245 8.95181 6.20245C8.75315 6.20245 8.56263 6.28137 8.42215 6.42185C8.28168 6.56232 8.20276 6.75284 8.20276 6.9515C8.20276 7.15016 8.28168 7.34069 8.42215 7.48116L10.1855 9.23598H4.31615C4.1175 9.23598 3.92698 9.3149 3.78652 9.45537C3.64605 9.59583 3.56714 9.78634 3.56714 9.98499C3.56714 10.1836 3.64605 10.3742 3.78652 10.5146C3.92698 10.6551 4.1175 10.734 4.31615 10.734H10.1855L8.41502 12.5045C8.27464 12.6453 8.19593 12.836 8.19619 13.0348C8.19646 13.2336 8.27569 13.4242 8.41645 13.5646C8.55721 13.7049 8.74796 13.7836 8.94676 13.7834C9.14555 13.7831 9.3361 13.7039 9.47648 13.5631L12.526 10.5143C12.5424 10.4972 12.5581 10.48 12.5731 10.4622L12.5938 10.4351Z" fill="white"/>
</svg>
