<svg width="16" height="17" viewBox="0 0 16 17" fill="none" xmlns="http://www.w3.org/2000/svg">
<path d="M4.80078 14.1079C4.80097 13.8951 4.88566 13.691 5.03623 13.5407L9.14163 9.43526C9.26589 9.31103 9.36446 9.16354 9.43171 9.00121C9.49897 8.83888 9.53358 8.66489 9.53358 8.48918C9.53358 8.31347 9.49897 8.13948 9.43171 7.97715C9.36446 7.81482 9.26589 7.66732 9.14163 7.54309L5.04158 3.44037C4.89537 3.28899 4.81446 3.08623 4.81629 2.87577C4.81812 2.66532 4.90254 2.464 5.05136 2.31518C5.20018 2.16635 5.4015 2.08194 5.61196 2.08011C5.82242 2.07828 6.02517 2.15918 6.17656 2.3054L10.2766 6.40491C10.8279 6.95728 11.1375 7.70582 11.1375 8.48623C11.1375 9.26665 10.8279 10.0152 10.2766 10.5676L6.17121 14.673C6.05911 14.7851 5.9163 14.8616 5.7608 14.8927C5.6053 14.9237 5.44407 14.9081 5.29747 14.8476C5.15086 14.7872 5.02545 14.6847 4.93705 14.553C4.84866 14.4213 4.80124 14.2665 4.80078 14.1079Z" fill="#828282"/>
</svg>
