<svg width="194" height="161" viewBox="0 0 194 161" fill="none" xmlns="http://www.w3.org/2000/svg">
<path fill-rule="evenodd" clip-rule="evenodd" d="M193.03 73.4181L193.974 71.666L189.212 71.3515L93.0719 57.3349C91.1401 57.0653 88.9837 56.4813 88.3548 56.0321L4.29989 2.66102L0.705877 0.145209C0.301551 0.100284 -0.192636 2.30162 0.0769148 2.48132L87.591 58.0537C88.2649 58.5029 90.3764 59.042 92.3081 59.3565L190.739 73.7326C192.671 73.9572 192.671 74.1369 193.03 73.4181Z" fill="#61A0E0"/>
<path fill-rule="evenodd" clip-rule="evenodd" d="M193.794 71.3915L106.28 15.8191C105.606 15.3698 103.495 14.7858 101.563 14.5163L3.08722 0.140235C1.15544 -0.129315 0.12217 0.00546284 0.796047 0.409789L88.3102 55.9822C88.9841 56.3865 91.0955 56.9705 93.0273 57.285L191.458 71.661C193.435 71.9305 194.468 71.7958 193.794 71.3915Z" fill="#61A0E0"/>
<path fill-rule="evenodd" clip-rule="evenodd" d="M140.198 64.1589C140.738 65.1473 140.693 65.911 140.109 66.495C136.245 84.3303 133.594 97.3137 132.157 105.4C118.949 96.7746 105.606 92.2371 92.1735 91.8328C82.9638 91.5183 86.3781 92.911 78.3365 87.9692C61.9388 77.8162 41.453 71.7513 15.9355 72.3802C13.5545 72.9642 37.1851 33.52 42.8906 27.0957L88.3997 55.9826C89.0736 56.3869 91.1851 56.9709 93.1169 57.2854L140.198 64.1589Z" fill="#61A0E0"/>
<path fill-rule="evenodd" clip-rule="evenodd" d="M92.5783 32.164C91.4102 31.8945 90.2421 32.6132 90.0175 33.7813C89.748 34.9494 90.4668 36.0725 91.6348 36.342L143.703 63.7464L143.209 72.7314C143.209 72.8212 143.209 72.8662 143.209 72.956L139.345 152.518C139.3 153.686 140.199 154.72 141.412 154.765C142.58 154.81 143.613 153.911 143.658 152.698L147.522 73.1357C147.522 73.0908 147.522 73.0009 147.522 72.956L148.151 62.1291C148.196 61.0958 147.522 60.1524 146.443 59.8828L92.5783 32.164Z" fill="#F08261"/>
<path fill-rule="evenodd" clip-rule="evenodd" d="M148.33 73.0594C148.42 71.3972 147.117 70.0045 145.5 69.9147C143.883 69.8248 142.445 71.0827 142.355 72.745L134.583 154.958C134.493 156.62 139.435 160.259 141.097 160.349C142.715 160.439 147.252 158.507 147.342 156.845L148.33 73.0594Z" fill="#F08261"/>
<path fill-rule="evenodd" clip-rule="evenodd" d="M141.68 79.8262C140.826 81.3986 140.197 83.9144 140.063 86.0258C139.973 88.1373 140.197 89.4851 140.602 90.9227L148.059 91.327C148.598 89.9343 148.913 88.6315 149.048 86.52C149.182 84.4085 148.913 81.8478 148.239 80.1856L141.68 79.8262Z" fill="#F5D2B8"/>
<path fill-rule="evenodd" clip-rule="evenodd" d="M140.109 66.4988C140.019 66.993 139.48 69.374 139.39 69.8682L91.7244 60.973C89.7926 60.6136 87.6811 60.1195 87.0072 59.6702C81.4814 56.166 44.2834 33.3441 41.543 28.7168L87.6362 57.963C88.3101 58.4123 90.4215 58.9514 92.3533 59.2659L140.288 66.2742C140.243 66.364 140.154 66.4539 140.109 66.4988Z" fill="black"/>
</svg>
