<svg width="170" height="416" viewBox="0 0 170 416" fill="none" xmlns="http://www.w3.org/2000/svg">
<path fill-rule="evenodd" clip-rule="evenodd" d="M61.387 49.773C58.6107 44.9916 63.2379 38.5907 68.3278 35.6602C73.6104 32.6139 81.3609 32.1126 84.0215 36.7398L168.506 183.074L169.238 196.531V210.412L157.208 203.472L145.91 196.107L61.387 49.773Z" fill="#F08261"/>
<path fill-rule="evenodd" clip-rule="evenodd" d="M64.8193 38.2889C65.8989 37.2477 67.0943 36.3609 68.2896 35.6283C69.5235 34.8956 70.9117 34.3558 72.3384 33.9316L166.038 196.229L169.2 204.249V210.38L163.879 207.296L158.519 200.548L64.8193 38.2889Z" fill="#FC9774"/>
<path fill-rule="evenodd" clip-rule="evenodd" d="M168.468 183.01V183.048L169.2 196.506V210.387L157.17 203.446L145.833 196.081L168.468 183.01Z" fill="#FFB27D"/>
<path d="M87.9656 43.5674L93.7314 53.5518L71.0912 66.6261L65.3254 56.6417L87.9656 43.5674Z" fill="#E9EEF8"/>
<path fill-rule="evenodd" clip-rule="evenodd" d="M61.3872 49.773C58.6109 44.9916 63.2381 38.5907 68.3279 35.6602C73.6106 32.6139 81.3611 32.1126 84.0217 36.7398L89.7285 46.6496L67.094 59.7214L61.3872 49.773Z" fill="#699DEE"/>
<path fill-rule="evenodd" clip-rule="evenodd" d="M160.91 187.352L166.038 196.22L169.2 204.241V210.372L163.879 207.325L158.519 200.577L153.391 191.709L160.91 187.352Z" fill="#F5D2B8"/>
<path fill-rule="evenodd" clip-rule="evenodd" d="M169.2 204.364V210.418L163.879 207.333L163.84 207.295C165.267 205.328 167.041 204.364 169.2 204.364Z" fill="#332C2B"/>
<path fill-rule="evenodd" clip-rule="evenodd" d="M50.7449 28.2598C50.7449 28.2598 46.5805 55.4444 45.8093 66.1254C45.4237 71.4852 44.8838 75.8039 48.2385 79.3899C48.2385 79.3899 39.8325 80.1997 37.0177 77.8861C37.0177 77.8861 37.5961 79.0429 38.0974 79.5441C38.0974 79.5441 28.7274 79.8912 24.8329 76.9607C18.9718 72.989 22.8278 -6.13532 51.0534 0.38126C51.0534 0.38126 77.0811 -1.81664 75.0375 23.7098C75.4616 54.0563 77.8909 80.2382 79.9346 85.5209C77.004 87.2175 69.9476 81.6649 69.0607 79.2742C68.2895 77.1535 67.8654 74.6471 67.634 73.9916C67.634 73.9916 68.5595 81.3179 68.9836 81.7806C68.9836 81.7806 58.4568 80.5853 53.9454 77.192C49.511 73.7602 49.4724 33.5425 50.7449 28.2598Z" fill="#284191"/>
<path fill-rule="evenodd" clip-rule="evenodd" d="M40.0636 47.888C40.1407 47.5795 40.2178 47.2711 40.2949 47.0012C39.4852 44.3406 39.2153 41.3329 39.6009 38.0168C37.0559 35.7803 31.5419 37.7083 26.9148 39.0965C24.8711 57.8364 24.9096 76.8078 26.0279 78.2345C28.38 81.165 34.0483 80.818 34.0483 80.818C33.7398 80.3167 33.3927 79.1599 33.3927 79.1599C35.1279 81.4735 40.1793 80.6637 40.1793 80.6637C38.1356 77.0777 38.4826 72.759 38.714 67.3992C38.9068 62.8106 39.4852 55.1372 40.0636 47.888Z" fill="#284191"/>
<path fill-rule="evenodd" clip-rule="evenodd" d="M125.705 321.273L122.582 320.771L125.705 321.273Z" fill="#646262"/>
<path fill-rule="evenodd" clip-rule="evenodd" d="M77.6982 81.3567H21.6711C25.6813 71.2927 31.4267 64.0434 35.7839 63.1566C38.0975 62.5396 42.0306 52.9768 41.992 39.4424L43.0717 40.792L60.6549 44.2623C60.6549 44.2623 60.2693 49.8149 60.2308 55.0205C60.2308 59.3777 60.4621 63.7735 61.4261 64.3133C62.6986 64.429 63.8553 64.6604 63.8553 64.6604C63.8553 64.6604 73.3796 71.4083 77.6982 81.3567Z" fill="#FFB27D"/>
<path fill-rule="evenodd" clip-rule="evenodd" d="M60.6162 44.3034C60.6162 44.3034 60.2306 49.8559 60.192 55.0615C50.3593 54.7916 45.1538 45.8072 42.9944 40.833L60.6162 44.3034Z" fill="#F08261"/>
<path fill-rule="evenodd" clip-rule="evenodd" d="M40.6038 35.1229C40.5653 20.6245 37.5576 10.8689 52.4416 10.0206C67.3256 9.17232 70.2176 14.6863 71.3744 19.5448C72.107 22.5525 72.107 34.1975 70.0248 41.8709C64.8964 60.6494 40.6038 44.57 40.6038 35.1229Z" fill="#FFB27D"/>
<path fill-rule="evenodd" clip-rule="evenodd" d="M27.4169 360.144L33.9335 387.559L43.6891 387.521L44.0361 360.144H27.4169Z" fill="#FFB27D"/>
<path fill-rule="evenodd" clip-rule="evenodd" d="M109.51 361.302L128.018 387.561L135.268 378.307L124.085 357.678L109.51 361.302Z" fill="#FFB27D"/>
<path fill-rule="evenodd" clip-rule="evenodd" d="M132.298 371.092L122.735 371.4L112.401 371.709C112.401 371.709 88.5327 345.141 75.1525 302.533C74.844 301.569 74.497 300.528 74.15 299.525C66.8236 278.163 51.6311 251.364 43.6107 227.072C42.3382 223.216 41.1815 219.591 40.1789 216.121C39.8319 215.002 39.5234 213.923 39.215 212.882C33.3153 192.368 31.6187 178.949 30.0377 164.566L87.8386 165.029C87.8772 164.991 97.2086 263.163 132.298 371.092Z" fill="#4567C6"/>
<path fill-rule="evenodd" clip-rule="evenodd" d="M79.7793 131.791C79.6251 159.284 83.8281 171.084 83.8281 171.084C83.8281 171.084 59.0728 183.654 29.6518 174.4C29.3048 174.284 7.94274 169.426 7.94274 169.426C8.44402 168.307 10.1792 149.182 10.6419 148.141C16.85 134.799 21.5543 128.977 22.2869 124.851C23.6365 117.177 23.6751 109.273 23.0196 101.792C21.2073 82.011 17.0428 69.4791 17.0428 69.4791C25.0633 67.6668 31.4256 60.5718 39.7544 57.4485C41.6824 59.8392 47.5435 62.3456 52.6334 62.2299C58.4944 62.1142 60.3839 59.6079 60.0754 56.8701C66.322 60.3405 71.2962 63.6181 71.2962 63.6181C76.6175 72.8338 87.3756 81.7796 88.1468 95.931C88.3781 99.4399 79.8179 131.02 79.7793 131.791Z" fill="#DFEDFA"/>
<path fill-rule="evenodd" clip-rule="evenodd" d="M38.367 58.841C41.5289 60.6918 44.498 62.08 47.2357 62.8897C50.5133 63.8923 53.4053 64.1622 55.8346 63.6609C58.3795 63.1596 60.3846 61.81 61.6185 59.6893C62.0041 59.0723 62.3126 58.3397 62.5439 57.5685L60.1918 56.8359C59.999 57.4143 59.7676 57.9541 59.4977 58.4168C58.6109 59.9206 57.1841 60.8846 55.3333 61.2316C53.3282 61.6558 50.8218 61.3859 47.9298 60.4991C45.4235 59.7279 42.6086 58.4554 39.601 56.6816L38.367 58.841Z" fill="#4F8ECC"/>
<path fill-rule="evenodd" clip-rule="evenodd" d="M33.5859 386.055C33.5859 386.055 34.3571 391.492 32.352 397.314C32.352 397.314 30.7711 404.602 37.9432 404.718C45.1153 404.872 46.8505 404.178 46.0407 399.705C45.2309 395.232 43.6886 387.52 43.6886 387.52L33.5859 386.055Z" fill="#FFB27D"/>
<path fill-rule="evenodd" clip-rule="evenodd" d="M47.0049 409.033C42.4548 417.631 35.9383 417.014 31.3111 409.033C30.6556 405.794 32.0823 398.93 32.3137 397.58C32.3137 397.465 32.3522 397.426 32.3522 397.349C32.3522 397.31 32.3522 397.272 32.3522 397.272C40.4497 404.714 45.5396 397.079 45.5396 397.079V397.118C46.7349 400.048 47.0049 407.876 47.0049 409.033Z" fill="#284191"/>
<path fill-rule="evenodd" clip-rule="evenodd" d="M152.542 400.436C152.542 400.436 139.316 385.783 135.267 378.303L125.435 383.315L147.414 403.945L152.542 403.289V400.436Z" fill="#FFB27D"/>
<path fill-rule="evenodd" clip-rule="evenodd" d="M160.91 409.037C160.91 409.037 144.561 409.037 144.291 409.037C141.862 409.037 139.895 404.988 137.235 399.705C136.155 397.546 133.726 396.351 131.258 395.695L131.335 409.037H127.518L123.97 394.924C121.618 390.605 123.777 386.711 125.435 383.317C127.363 383.317 132.492 384.628 142.247 395.618C145.448 399.242 148.995 400.515 152.504 400.399C152.543 400.438 152.62 400.438 152.658 400.476C160.794 404.14 160.91 409.037 160.91 409.037Z" fill="#284191"/>
<path fill-rule="evenodd" clip-rule="evenodd" d="M122.774 371.403L112.44 371.711C112.44 371.711 88.572 345.144 75.1918 302.535C74.8833 301.571 74.5363 300.53 74.1893 299.528C66.863 278.166 51.6705 251.367 43.6501 227.074C42.3776 223.218 41.2208 219.594 40.2183 216.123C39.8712 215.005 39.5627 213.925 39.2543 212.884L47.7759 206.406C47.7759 206.406 73.341 247.781 81.2457 286.726C88.1093 320.581 115.641 361.262 122.774 371.403Z" fill="#3B5BB3"/>
<path fill-rule="evenodd" clip-rule="evenodd" d="M48.6628 290.349C48.817 309.282 47.8531 352.815 45.3852 370.861H36.2466C31.1953 370.861 28.6504 370.784 28.6504 370.784C22.4808 339.435 18.0464 313.523 14.846 291.159C12.2239 272.804 9.8718 257.11 8.09805 243.576C6.28575 229.964 5.01329 218.551 4.58913 208.911C4.51202 207.407 4.47345 205.903 4.43489 204.477C4.39633 203.05 4.39634 201.623 4.39634 200.274L54.3311 195.415C53.7141 228.615 48.5857 279.359 48.6628 290.349Z" fill="#4567C6"/>
<path fill-rule="evenodd" clip-rule="evenodd" d="M36.2461 370.858C31.1948 370.858 28.6499 370.781 28.6499 370.781C22.4803 339.432 18.0459 313.52 14.8455 291.155C12.2234 272.801 9.87131 257.107 8.09756 243.572C6.28526 229.961 5.0128 218.547 4.58865 208.907L22.9045 219.704C22.9045 219.704 11.2209 223.83 15.6552 255.063C20.1282 286.296 30.038 366.423 36.2461 370.858Z" fill="#3B5BB3"/>
<path fill-rule="evenodd" clip-rule="evenodd" d="M38.5978 208.601C38.5978 208.601 35.0889 221.325 22.9041 219.706C10.7193 218.086 -0.000282288 213.343 -0.000282288 213.343C-0.000282288 213.343 0.500977 196.686 5.08957 172.74C12.9943 146.635 14.8837 109.888 19.4337 88.603C20.7062 82.6649 29.3436 80.6983 29.652 77.1509L39.2919 57.7168C39.2919 57.7168 54.7929 91.3408 55.6412 99.8625C56.451 108.423 38.5978 208.601 38.5978 208.601Z" fill="#61A0E0"/>
<path fill-rule="evenodd" clip-rule="evenodd" d="M30.0763 124.969C29.5365 138.773 24.7165 162.295 5.32106 172.629C5.24394 172.667 5.16683 172.706 5.08971 172.745C12.9173 146.601 12.8016 121.537 17.3902 100.291C27.8399 98.1316 30.3848 117.373 30.0763 124.969Z" fill="#4F8ECC"/>
<path fill-rule="evenodd" clip-rule="evenodd" d="M106.772 128.44C104.034 129.096 99.6771 129.019 98.9059 128.826C95.5512 128.093 90.7698 91.77 88.1863 79.3538C84.8702 63.313 72.1455 60.1511 72.1455 60.1511L60.1149 56.9121C60.1149 56.9121 73.9193 90.9988 74.3049 97.901C74.6905 104.803 75.9244 210.688 75.9244 210.688C75.9244 210.688 75.1146 215.546 84.446 213.541C93.7775 211.498 96.2067 209.493 96.2067 209.493C96.2067 209.493 92.1579 179.879 90.2685 153.62C93.3918 153.08 110.242 146.987 116.026 144.52L106.772 128.44Z" fill="#61A0E0"/>
<path fill-rule="evenodd" clip-rule="evenodd" d="M63.5856 10.987C64.1254 11.2955 65.4364 12.6836 65.9377 12.9921C76.3874 19.7401 72.9941 24.5215 76.0403 30.8067C76.0403 30.8067 79.7421 18.0434 73.9581 11.0256C67.7886 3.58358 63.5856 10.987 63.5856 10.987Z" fill="#284191"/>
<path fill-rule="evenodd" clip-rule="evenodd" d="M70.5646 9.28376C68.9065 8.51257 67.7882 8.66679 67.1327 9.74646C67.5569 12.33 68.7908 14.2579 70.7959 15.4919C70.1404 14.4122 70.0633 12.33 70.5646 9.28376Z" fill="#284191"/>
<path fill-rule="evenodd" clip-rule="evenodd" d="M39.0613 26.8393C41.5291 24.2944 43.727 23.7931 45.6164 25.3741C46.6189 30.4254 45.7321 34.7441 42.9172 38.4072C43.3799 35.8623 42.1075 32.0063 39.0613 26.8393Z" fill="#284191"/>
<path fill-rule="evenodd" clip-rule="evenodd" d="M71.3738 18.3173C72.7234 13.3046 74.1115 11.8393 75.5382 13.883C76.7722 22.0576 76.6951 29.6153 75.2683 36.6331C75.2683 32.2759 73.9573 26.1835 71.3738 18.3173Z" fill="#284191"/>
<path fill-rule="evenodd" clip-rule="evenodd" d="M54.8709 63.2723C56.2205 63.0409 57.5701 64.429 57.9171 66.3956C58.2642 68.3621 57.4158 70.0973 56.1048 70.3287C54.7552 70.56 53.4056 69.1719 53.0586 67.2053C52.7116 65.2388 53.5213 63.5036 54.8709 63.2723Z" fill="#4F8ECC"/>
<path fill-rule="evenodd" clip-rule="evenodd" d="M56.374 69.244C57.1838 69.0898 58.0321 69.9766 58.2634 71.172C58.4562 72.3673 57.955 73.447 57.1452 73.6013C56.3355 73.7555 55.4871 72.8686 55.2943 71.6733C55.0244 70.4394 55.5643 69.3597 56.374 69.244Z" fill="#4F8ECC"/>
<path fill-rule="evenodd" clip-rule="evenodd" d="M57.1848 72.9475C57.9175 72.8319 58.6501 73.5645 58.8429 74.6442C59.0357 75.6853 58.573 76.6493 57.8403 76.765C57.1077 76.8806 56.3751 76.148 56.1823 75.0683C56.0281 74.0272 56.4522 73.1018 57.1848 72.9475Z" fill="#4F8ECC"/>
<path fill-rule="evenodd" clip-rule="evenodd" d="M4.9357 101.56C8.71454 81.7786 15.154 70.712 24.3312 68.3213C21.3235 115.21 18.9714 141.97 21.1693 143.05C44.6521 128.359 56.1043 120.068 56.1043 120.068C59.8446 117.909 63.5463 118.68 66.6311 120.492C75.8083 123.809 80.3969 125.467 80.3969 125.467C81.2837 127.819 76.6952 126.585 68.9447 124.734C68.2506 128.436 62.0039 132.369 58.3408 129.438C49.8577 134.991 16.4265 171.391 6.82513 161.173C3.43188 157.548 3.66322 151.109 3.43186 140.196C3.16194 130.209 2.58356 117.292 4.9357 101.56Z" fill="#FFB27D"/>
<path fill-rule="evenodd" clip-rule="evenodd" d="M39.2925 57.7168C39.2925 57.7168 20.4368 62.9995 16.8508 68.3207C15.6554 70.133 11.1439 74.4517 8.32906 82.3179C2.85359 97.6646 1.11846 119.952 2.12101 125.697C3.23924 145.748 0.887051 160.517 9.29305 163.1C19.1258 166.146 47.0815 141.661 58.0324 131.019C58.8422 130.247 57.7625 126.893 57.6854 125.813C57.6854 125.813 57.2227 117.253 53.5595 120.106C48.1997 124.309 31.4263 132.098 22.1334 140.736C18.3546 144.245 23.1745 122.767 23.483 122.111C24.1 120.723 35.745 87.4848 38.9454 91.6878C41.7217 95.3124 39.2925 57.7168 39.2925 57.7168Z" fill="#61A0E0"/>
<path fill-rule="evenodd" clip-rule="evenodd" d="M18.7014 160.988C14.9225 162.916 11.645 163.803 9.33143 163.109C8.79159 162.955 8.29031 162.724 7.82759 162.454C7.82759 162.454 7.8276 162.454 7.78904 162.454C7.55769 162.299 7.32631 162.145 7.09495 161.991C7.01783 162.261 7.5191 162.569 7.71189 162.724C7.71189 162.724 7.71189 162.724 7.75045 162.724C10.064 164.536 12.2234 166.271 16.2722 164.574C25.3722 160.68 40.3333 148.187 48.9707 139.434C40.0634 147.647 27.2231 156.67 18.7014 160.988Z" fill="#4F8ECC"/>
<path fill-rule="evenodd" clip-rule="evenodd" d="M64.5107 7.05715C64.5107 7.05715 57.6471 25.373 47.1589 28.0721C36.6321 30.7713 32.0821 27.9565 32.0821 27.9565C32.0821 27.9565 40.141 21.5556 41.8377 10.3733C41.7991 10.3733 59.3823 -1.65732 64.5107 7.05715Z" fill="#284191"/>
<path d="M38.7137 31.0756C41.0658 31.0756 44.0349 30.7671 47.6209 29.8417C58.9189 26.9497 65.9368 8.47967 66.2453 7.70848L66.5537 6.89874L66.091 6.16609C64.8957 4.16099 63.0833 2.88852 60.7698 2.34868C53.0193 0.574939 41.2586 8.55679 40.7959 8.86527L40.1404 9.32797L40.0247 10.0992C38.4823 20.3946 31.0403 26.487 30.9632 26.5255L28.9581 28.1451L31.156 29.4947C31.503 29.726 33.8552 31.0756 38.7137 31.0756ZM62.4664 7.32288C60.9626 10.9089 54.9473 24.212 46.6955 26.3328C41.4128 27.6823 37.7883 27.5667 35.5518 27.1811C38.1353 24.3662 42.1455 19.0064 43.4951 11.4873C46.9655 9.25084 55.1015 4.89364 59.9986 5.93475C61.0397 6.12754 61.8494 6.59025 62.4664 7.32288Z" fill="#284191"/>
<path fill-rule="evenodd" clip-rule="evenodd" d="M130.1 129.055C126.899 139.851 127.671 139.581 128.326 139.196C136.346 134.453 137.889 130.134 136.578 122.885C136.424 122.769 136.269 122.615 136.115 122.5C131.257 117.487 130.987 116.986 131.257 120.996C131.449 123.194 131.604 125.314 130.1 129.055Z" fill="#FFB27D"/>
</svg>
