<svg width="24" height="24" viewBox="0 0 24 24" fill="none" xmlns="http://www.w3.org/2000/svg">
<path d="M13.0279 17.3935C13.1955 17.5615 13.2897 17.7891 13.2897 18.0265C13.2897 18.2638 13.1955 18.4915 13.0279 18.6595L12.0965 19.5969C11.5964 20.0995 11.0015 20.4979 10.3463 20.7692C9.69113 21.0404 8.98869 21.179 8.27959 21.177C7.21184 21.1766 6.16819 20.8596 5.2806 20.2661C4.39302 19.6726 3.70136 18.8292 3.29308 17.8426C2.88481 16.8559 2.77825 15.7704 2.98688 14.7233C3.19551 13.6761 3.70998 12.7143 4.4652 11.9595L6.72507 9.69793C7.69637 8.72237 9.00501 8.15675 10.3811 8.11773H10.542C11.8629 8.11755 13.138 8.60216 14.1253 9.47965C14.2136 9.55774 14.2854 9.6526 14.3367 9.75871C14.3882 9.86587 14.4173 9.98236 14.4223 10.1011C14.4292 10.2187 14.4129 10.3365 14.3744 10.4478C14.3158 10.6149 14.2091 10.7609 14.0678 10.8675C13.9265 10.9741 13.7567 11.0366 13.58 11.047H13.5261C13.3069 11.0473 13.0952 10.9672 12.9312 10.8219C12.2712 10.2343 11.4179 9.9104 10.5343 9.91193H10.4273C9.50836 9.93829 8.63441 10.3157 7.98512 10.9665L5.72354 13.2247C5.3805 13.5576 5.10709 13.9554 4.91921 14.395C4.73133 14.8345 4.63273 15.3071 4.62915 15.7851C4.62558 16.2631 4.71709 16.737 4.89837 17.1794C5.07965 17.6217 5.34707 18.0235 5.68509 18.3616C6.0231 18.6996 6.42496 18.967 6.86728 19.1483C7.3096 19.3296 7.78355 19.4211 8.26156 19.4175C8.73957 19.4139 9.2121 19.3153 9.65166 19.1274C10.0912 18.9396 10.489 18.6661 10.8219 18.3231L11.7541 17.3918C11.8372 17.3084 11.936 17.2423 12.0447 17.1972C12.1534 17.1521 12.2699 17.1288 12.3876 17.1288C12.5053 17.1288 12.6218 17.1521 12.7305 17.1972C12.8392 17.2423 12.9379 17.3084 13.021 17.3918L13.0279 17.3935ZM19.6406 4.50108L19.5978 4.45828C18.585 3.44754 17.2125 2.87988 15.7817 2.87988C14.3508 2.87988 12.9784 3.44754 11.9656 4.45828L11.0325 5.38877C10.8646 5.55677 10.7704 5.78458 10.7704 6.02209C10.7705 6.2596 10.865 6.48735 11.033 6.65524C11.201 6.82313 11.4288 6.9174 11.6663 6.91732C11.9038 6.91724 12.1315 6.82281 12.2994 6.65481L13.2316 5.72347C13.9111 5.06401 14.8228 4.69833 15.7696 4.70542C16.7165 4.71251 17.6226 5.09179 18.2921 5.76135C18.9617 6.4309 19.341 7.33698 19.3481 8.28385C19.3552 9.23072 18.9895 10.1424 18.33 10.8219L16.0684 13.0843C15.419 13.7349 14.5451 14.1119 13.6262 14.1381H13.521C12.6374 14.1386 11.7843 13.8145 11.1241 13.2273C10.9592 13.0804 10.7457 12.9999 10.5249 13.0013C10.5069 13.0013 10.489 13.0013 10.471 13.0013C10.3533 13.0083 10.2382 13.0384 10.1322 13.0899C10.0262 13.1414 9.93134 13.2132 9.85312 13.3014C9.77489 13.3896 9.71481 13.4923 9.6763 13.6037C9.63778 13.7151 9.6216 13.8329 9.62866 13.9506C9.64404 14.1878 9.75194 14.4094 9.92912 14.5678C10.9168 15.446 12.1925 15.9309 13.5141 15.9306C13.5672 15.9306 13.6202 15.9306 13.6725 15.9306C15.0487 15.8916 16.3578 15.3267 17.3302 14.3521L19.5978 12.0948C20.6016 11.0892 21.1689 9.72877 21.1769 8.30799C21.1849 6.88721 20.633 5.52045 19.6406 4.50365V4.50108Z" fill="#BDBDBD"/>
</svg>
