<svg width="16" height="17" viewBox="0 0 16 17" fill="none" xmlns="http://www.w3.org/2000/svg">
<path d="M11.9901 1.85678L4.67518 9.16998C4.3957 9.44784 4.17416 9.77841 4.0234 10.1425C3.87264 10.5067 3.79565 10.8971 3.79691 11.2912V12.097C3.79706 12.256 3.8603 12.4085 3.97275 12.5209C4.0852 12.6334 4.23767 12.6966 4.39669 12.6967H5.20249C5.59658 12.698 5.98701 12.621 6.35113 12.4703C6.71525 12.3195 7.04582 12.0979 7.32368 11.8185L14.6386 4.50357C14.9891 4.15196 15.1859 3.67577 15.1859 3.17932C15.1859 2.68288 14.9891 2.20667 14.6386 1.85507C14.2821 1.51403 13.8077 1.32368 13.3143 1.32368C12.821 1.32368 12.3466 1.51403 11.9901 1.85507V1.85678ZM13.79 3.65669L6.47509 10.9716C6.13681 11.308 5.67955 11.4975 5.20249 11.4989H4.99647V11.2929C4.9979 10.8158 5.18737 10.3585 5.52377 10.0203L12.8387 2.70537C12.9663 2.58211 13.1369 2.51323 13.3143 2.51323C13.4918 2.51323 13.6623 2.58211 13.79 2.70537C13.9161 2.83155 13.987 3.00264 13.987 3.18104C13.987 3.35943 13.9161 3.53052 13.79 3.65669ZM14.5964 6.6864C14.4373 6.68655 14.2849 6.74979 14.1724 6.86224C14.06 6.97469 13.9967 7.12715 13.9966 7.28618V10.2988H11.5969C11.1194 10.2988 10.6614 10.4885 10.3238 10.8261C9.9861 11.1638 9.79642 11.6217 9.79642 12.0993V14.4989H3.79691C3.56052 14.499 3.32644 14.4525 3.10803 14.3621C2.88962 14.2717 2.69117 14.1391 2.52402 13.9719C2.35687 13.8048 2.22429 13.6063 2.13386 13.3879C2.04343 13.1695 1.99693 12.9354 1.99701 12.699V4.29927C1.99678 4.06284 2.04318 3.82868 2.13355 3.61021C2.22393 3.39173 2.3565 3.19323 2.52368 3.02604C2.69087 2.85886 2.88937 2.72629 3.10785 2.63591C3.32633 2.54554 3.56048 2.49914 3.79691 2.49936H9.22174C9.30354 2.50441 9.38551 2.49267 9.4626 2.46484C9.53969 2.43701 9.61025 2.39369 9.66996 2.33755C9.72968 2.28141 9.77726 2.21364 9.80978 2.13842C9.84231 2.0632 9.85909 1.98211 9.85909 1.90015C9.85909 1.8182 9.84231 1.73711 9.80978 1.66189C9.77726 1.58666 9.72968 1.51889 9.66996 1.46276C9.61025 1.40662 9.53969 1.36331 9.4626 1.33548C9.38551 1.30765 9.30354 1.29589 9.22174 1.30095H3.79691C3.00144 1.30155 2.23872 1.61782 1.67623 2.1803C1.11375 2.74279 0.79748 3.50551 0.796875 4.30099V12.7007C0.797781 13.4961 1.11415 14.2587 1.67657 14.8211C2.23899 15.3835 3.00153 15.6999 3.79691 15.7008H10.6022C10.9964 15.7019 11.3869 15.6249 11.7511 15.4742C12.1153 15.3234 12.4459 15.1019 12.724 14.8225L14.3179 13.2275C14.5973 12.9495 14.8188 12.6189 14.9696 12.2549C15.1205 11.8908 15.1977 11.5004 15.1967 11.1063V7.28675C15.1966 7.12763 15.1332 6.97508 15.0207 6.86261C14.9081 6.75015 14.7555 6.68697 14.5964 6.68697V6.6864ZM11.8754 13.9722C11.6343 14.2128 11.3293 14.3794 10.9965 14.4521V12.0993C10.9965 11.94 11.0598 11.7873 11.1724 11.6747C11.285 11.5622 11.4377 11.4989 11.5969 11.4989H13.9515C13.8775 11.8311 13.7111 12.1355 13.4716 12.3772L11.8754 13.9722Z" fill="white"/>
</svg>
