<svg width="20" height="20" viewBox="0 0 20 20" fill="none" xmlns="http://www.w3.org/2000/svg">
<path d="M9.70213 16.7388H3.1465C2.84013 16.7384 2.54641 16.6165 2.32977 16.3999C2.11314 16.1832 1.99127 15.8895 1.99089 15.5831V7.50096H17.9919V9.70163C17.9979 9.89507 18.0789 10.0786 18.2179 10.2133C18.3568 10.348 18.5427 10.4233 18.7363 10.4233C18.9298 10.4233 19.1157 10.348 19.2547 10.2133C19.3936 10.0786 19.4746 9.89507 19.4806 9.70163V4.38937C19.4806 3.68937 19.2026 3.01802 18.7076 2.52304C18.2126 2.02807 17.5413 1.75 16.8413 1.75H3.13937C2.43937 1.75 1.76803 2.02807 1.27305 2.52304C0.778075 3.01802 0.5 3.68937 0.5 4.38937V15.5831C0.501132 16.2842 0.780194 16.9563 1.27602 17.452C1.77184 17.9477 2.44397 18.2266 3.14508 18.2275H9.70213C9.80182 18.2306 9.90111 18.2136 9.99412 18.1776C10.0871 18.1416 10.172 18.0873 10.2436 18.0178C10.3152 17.9484 10.3721 17.8653 10.411 17.7735C10.4499 17.6816 10.4699 17.5829 10.4699 17.4831C10.4699 17.3834 10.4499 17.2847 10.411 17.1928C10.3721 17.101 10.3152 17.0179 10.2436 16.9484C10.172 16.879 10.0871 16.8247 9.99412 16.7887C9.90111 16.7527 9.80182 16.7357 9.70213 16.7388ZM17.9955 4.38937V6.01151H1.98732V4.38937C1.98751 4.23827 2.01745 4.08868 2.07545 3.94916C2.13345 3.80963 2.21836 3.68288 2.32534 3.57617C2.43232 3.46945 2.55927 3.38486 2.69894 3.32721C2.83861 3.26956 2.98827 3.23998 3.13937 3.24017H16.8427C17.1474 3.24054 17.4394 3.36174 17.6549 3.57718C17.8703 3.79261 17.9915 4.0847 17.9919 4.38937H17.9955ZM4.44193 4.11116C4.5594 4.2298 4.6321 4.3855 4.64767 4.55174C4.66324 4.71797 4.62072 4.88445 4.52733 5.02284C4.43395 5.16124 4.29547 5.263 4.1355 5.31078C3.97552 5.35855 3.80393 5.3494 3.64994 5.28488C3.49596 5.22036 3.36909 5.10445 3.29095 4.95691C3.21282 4.80936 3.18824 4.6393 3.2214 4.47566C3.25456 4.31203 3.34341 4.16496 3.47283 4.05948C3.60225 3.954 3.76422 3.89663 3.93118 3.89715C4.02568 3.89745 4.11918 3.91653 4.20625 3.95327C4.29332 3.99 4.37222 4.04367 4.43837 4.11116H4.44193ZM6.34513 4.11116C6.4626 4.2298 6.5353 4.3855 6.55087 4.55174C6.56644 4.71797 6.52392 4.88445 6.43053 5.02284C6.33714 5.16124 6.19867 5.263 6.0387 5.31078C5.87872 5.35855 5.70713 5.3494 5.55314 5.28488C5.39915 5.22036 5.27229 5.10445 5.19415 4.95691C5.11602 4.80936 5.09143 4.6393 5.1246 4.47566C5.15776 4.31203 5.24661 4.16496 5.37603 4.05948C5.50545 3.954 5.66742 3.89663 5.83438 3.89715C5.92888 3.89745 6.02238 3.91653 6.10945 3.95327C6.19652 3.99 6.27542 4.04367 6.34157 4.11116H6.34513ZM8.24762 4.11116C8.3486 4.21211 8.41737 4.34074 8.44524 4.48078C8.47311 4.62082 8.45883 4.76598 8.40419 4.89791C8.34956 5.02983 8.25703 5.14259 8.13831 5.22192C8.01959 5.30125 7.88001 5.34359 7.73722 5.34359C7.59444 5.34359 7.45485 5.30125 7.33613 5.22192C7.21741 5.14259 7.12489 5.02983 7.07025 4.89791C7.01562 4.76598 7.00134 4.62082 7.02921 4.48078C7.05708 4.34074 7.12585 4.21211 7.22682 4.11116C7.36204 3.97503 7.54571 3.89807 7.73758 3.89715C7.83193 3.89774 7.92523 3.91696 8.01215 3.95368C8.09906 3.99041 8.17787 4.04391 8.24405 4.11116H8.24762ZM19.3615 12.2433C19.2775 12.0959 19.1565 11.973 19.0105 11.8866L15.2605 9.70806C15.0338 9.57632 14.7762 9.50691 14.514 9.50691C14.2518 9.50691 13.9942 9.57632 13.7675 9.70806L10.0167 11.8873C9.87106 11.9723 9.75024 12.094 9.66627 12.2403C9.58229 12.3865 9.53811 12.5522 9.53811 12.7209C9.53811 12.8895 9.58229 13.0552 9.66627 13.2014C9.75024 13.3477 9.87106 13.4694 10.0167 13.5544L10.9212 14.0801V15.7094C10.9216 15.9671 10.9896 16.2202 11.1186 16.4433C11.2475 16.6664 11.4328 16.8517 11.656 16.9806L13.221 17.8822C13.6136 18.1081 14.0586 18.2272 14.5115 18.2275C14.9649 18.2274 15.4103 18.1084 15.8034 17.8822L17.3727 16.9799C17.5948 16.8504 17.7791 16.6649 17.9071 16.442C18.0352 16.2191 18.1025 15.9665 18.1025 15.7094V14.0844L19.0077 13.5587C19.2274 13.4299 19.3874 13.2197 19.453 12.9737C19.5185 12.7277 19.4844 12.4657 19.3579 12.2447L19.3615 12.2433ZM14.5108 16.7373C14.3184 16.7383 14.1291 16.6892 13.9615 16.5947L12.4078 15.6994V14.9533L13.7632 15.7415C13.99 15.873 14.2475 15.9423 14.5097 15.9423C14.7719 15.9423 15.0294 15.873 15.2562 15.7415L16.6116 14.9568V15.703L15.0579 16.5982C14.8906 16.6911 14.7021 16.7391 14.5108 16.7373ZM11.5426 12.7248L14.5101 11.0013L17.4776 12.7248L14.5108 14.4496L11.5426 12.7248Z" fill="white"/>
</svg>
