<svg width="24" height="24" viewBox="0 0 24 24" fill="none" xmlns="http://www.w3.org/2000/svg">
<path d="M13.024 17.3945C13.1916 17.5625 13.2858 17.7901 13.2858 18.0275C13.2858 18.2648 13.1916 18.4925 13.024 18.6605L12.0926 19.5978C11.5925 20.1004 10.9976 20.4989 10.3424 20.7701C9.68723 21.0414 8.98478 21.18 8.27569 21.178C7.20794 21.1776 6.16428 20.8606 5.2767 20.2671C4.38911 19.6735 3.69745 18.8301 3.28918 17.8435C2.8809 16.8569 2.77434 15.7714 2.98297 14.7242C3.19161 13.6771 3.70607 12.7153 4.4613 11.9605L6.72117 9.69891C7.69246 8.72335 9.00111 8.15773 10.3772 8.11871H10.5381C11.859 8.11853 13.1341 8.60314 14.1214 9.48063C14.2097 9.55872 14.2815 9.65358 14.3328 9.75969C14.3843 9.86685 14.4134 9.98334 14.4184 10.1021C14.4253 10.2197 14.409 10.3375 14.3705 10.4488C14.3119 10.6158 14.2052 10.7619 14.0639 10.8685C13.9225 10.9751 13.7528 11.0375 13.5761 11.048H13.5222C13.303 11.0483 13.0913 10.9682 12.9273 10.8229C12.2673 10.2353 11.414 9.91138 10.5304 9.91291H10.4234C9.50445 9.93927 8.63051 10.3167 7.98122 10.9675L5.71963 13.2257C5.37659 13.5586 5.10318 13.9564 4.9153 14.396C4.72742 14.8355 4.62883 15.308 4.62525 15.7861C4.62167 16.2641 4.71318 16.738 4.89446 17.1803C5.07574 17.6227 5.34317 18.0245 5.68118 18.3625C6.0192 18.7006 6.42105 18.968 6.86337 19.1493C7.30569 19.3305 7.77964 19.422 8.25766 19.4185C8.73567 19.4149 9.2082 19.3163 9.64776 19.1284C10.0873 18.9405 10.4851 18.6671 10.818 18.3241L11.7502 17.3927C11.8333 17.3094 11.9321 17.2433 12.0408 17.1982C12.1495 17.153 12.266 17.1298 12.3837 17.1298C12.5014 17.1298 12.6179 17.153 12.7266 17.1982C12.8353 17.2433 12.934 17.3094 13.0171 17.3927L13.024 17.3945ZM19.6367 4.50206L19.5939 4.45926C18.5811 3.44851 17.2086 2.88086 15.7778 2.88086C14.3469 2.88086 12.9745 3.44851 11.9617 4.45926L11.0286 5.38974C10.8607 5.55774 10.7665 5.78556 10.7665 6.02307C10.7666 6.26058 10.861 6.48833 11.029 6.65622C11.197 6.8241 11.4249 6.91838 11.6624 6.9183C11.8999 6.91822 12.1276 6.82379 12.2955 6.65579L13.2277 5.72445C13.9072 5.06499 14.8189 4.69931 15.7657 4.7064C16.7126 4.71348 17.6187 5.09277 18.2882 5.76233C18.9578 6.43188 19.3371 7.33796 19.3442 8.28483C19.3513 9.2317 18.9856 10.1433 18.3261 10.8229L16.0645 13.0853C15.4151 13.7358 14.5412 14.1129 13.6223 14.139H13.517C12.6334 14.1396 11.7804 13.8155 11.1202 13.2282C10.9553 13.0814 10.7418 13.0009 10.521 13.0023C10.503 13.0023 10.4851 13.0023 10.4671 13.0023C10.3494 13.0092 10.2343 13.0393 10.1283 13.0908C10.0223 13.1423 9.92743 13.2142 9.84921 13.3024C9.77098 13.3905 9.7109 13.4933 9.67239 13.6046C9.63388 13.716 9.61769 13.8339 9.62476 13.9516C9.64014 14.1887 9.74803 14.4104 9.92522 14.5688C10.9129 15.4469 12.1886 15.9319 13.5102 15.9315C13.5633 15.9315 13.6163 15.9315 13.6686 15.9315C15.0448 15.8926 16.3539 15.3277 17.3263 14.353L19.5939 12.0957C20.5976 11.0902 21.165 9.72975 21.173 8.30897C21.181 6.88819 20.629 5.52143 19.6367 4.50463V4.50206Z" fill="#BDBDBD"/>
</svg>
