<svg width="152" height="35" viewBox="0 0 152 35" fill="none" xmlns="http://www.w3.org/2000/svg">
<g clip-path="url(#clip0_2639_37500)">
<path d="M73.0309 0.686523H83.1924V34.7516H73.0309V0.686523Z" fill="#FFC071"/>
<path d="M53.7137 0C49.6556 0 46.4546 1.13341 44.0979 3.02379C41.7206 1.13341 38.5014 0 34.445 0V9.55863C37.4391 9.55863 38.9116 11.4216 38.9116 14.4605V34.7523H49.2457V14.4605C49.2457 11.4216 50.718 9.55863 53.7137 9.55863C56.7091 9.55863 58.1854 11.4285 58.1854 14.4605V34.7523H68.3964V14.4605C68.3907 6.56906 63.4815 0 53.7137 0Z" fill="#FE7C11"/>
<path d="M34.4457 25.1949C31.4517 25.1949 29.9793 23.3319 29.9793 20.2931V0H19.6451V20.2931C19.6451 23.3319 18.1728 25.1949 15.1786 25.1949C12.1845 25.1949 10.7108 23.3319 10.7108 20.2931V0H0.5V20.2931C0.5 28.1845 5.40932 34.7523 15.1786 34.7523C19.2353 34.7523 22.4364 33.6188 24.793 31.7284C27.1702 33.6188 30.3892 34.7523 34.4457 34.7523V25.1949Z" fill="#FE7C11"/>
<path d="M72.9719 0.625977H83.1435V34.7246H72.9719V0.625977Z" fill="#FFC071"/>
<path d="M114.47 9.65351H104.991V34.7246H94.815V9.65351H85.331V0.625977H114.47V9.65351Z" fill="#FFC071"/>
<path d="M139.063 20.8399V34.7246H128.94V20.9386L116.656 0.625977H128.007L134.002 11.715L139.947 0.625977H151.298L139.063 20.8399Z" fill="#FFC071"/>
</g>
<defs>
<clipPath id="clip0_2639_37500">
<rect width="151" height="35" fill="white" transform="translate(0.5)"/>
</clipPath>
</defs>
</svg>
