<svg width="20" height="21" viewBox="0 0 20 21" fill="none" xmlns="http://www.w3.org/2000/svg">
<path fill-rule="evenodd" clip-rule="evenodd" d="M6.43848 3.0473C7.31081 2.68597 8.24577 2.5 9.18997 2.5C10.1342 2.5 11.0691 2.68597 11.9414 3.0473C12.8138 3.40863 13.6064 3.93824 14.274 4.60589C14.9417 5.27354 15.4713 6.06616 15.8326 6.93848C16.194 7.81081 16.3799 8.74577 16.3799 9.68997C16.3799 10.6342 16.194 11.5691 15.8326 12.4414C15.5621 13.0947 15.1971 13.7032 14.7505 14.248L17.7924 17.2899C18.0692 17.5667 18.0692 18.0156 17.7924 18.2924C17.5156 18.5692 17.0667 18.5692 16.7899 18.2924L13.7481 15.2505C12.4684 16.2995 10.8591 16.8799 9.18997 16.8799C7.28307 16.8799 5.45427 16.1224 4.10589 14.774C2.75751 13.4257 2 11.5969 2 9.68997C2 7.78307 2.75751 5.95427 4.10589 4.60589C4.77354 3.93824 5.56616 3.40863 6.43848 3.0473ZM9.18997 3.91771C8.43194 3.91771 7.68134 4.06701 6.98102 4.35709C6.28069 4.64718 5.64437 5.07236 5.10836 5.60836C4.02585 6.69087 3.41771 8.15907 3.41771 9.68997C3.41771 11.2209 4.02585 12.6891 5.10836 13.7716C6.19087 14.8541 7.65907 15.4622 9.18997 15.4622C10.7209 15.4622 12.1891 14.8541 13.2716 13.7716C13.8076 13.2356 14.2328 12.5992 14.5228 11.8989C14.8129 11.1986 14.9622 10.448 14.9622 9.68997C14.9622 8.93194 14.8129 8.18134 14.5228 7.48102C14.2328 6.7807 13.8076 6.14437 13.2716 5.60836C12.7356 5.07236 12.0992 4.64718 11.3989 4.35709C10.6986 4.06701 9.94799 3.91771 9.18997 3.91771Z" fill="#828282"/>
</svg>
