<svg width="24" height="24" viewBox="0 0 24 24" fill="none" xmlns="http://www.w3.org/2000/svg">
<g id="Icon" clip-path="url(#clip0_2168_34091)">
<path id="Vector" d="M14.1586 19.9139C14.0406 19.914 13.9236 19.8908 13.8145 19.8457C13.7054 19.8006 13.6062 19.7345 13.5226 19.6511L8.81456 14.943L4.15614 13.3893C3.9781 13.3299 3.82312 13.2163 3.71294 13.0644C3.60276 12.9124 3.5429 12.7298 3.54177 12.5421C3.54063 12.3544 3.59828 12.1711 3.70662 12.0179C3.81496 11.8646 3.96856 11.7491 4.14587 11.6876L18.1673 6.83399C18.2713 6.79528 18.3817 6.77641 18.4926 6.77836C18.5438 6.77925 18.5947 6.7844 18.645 6.79376C18.6824 6.80055 18.7193 6.81 18.7554 6.82202C18.8563 6.8548 18.9508 6.90491 19.0345 6.97011C19.0644 6.99356 19.093 7.0187 19.1201 7.04543C19.1854 7.11066 19.24 7.18578 19.2819 7.268C19.3288 7.35993 19.3595 7.45925 19.3726 7.5616C19.3778 7.60421 19.3804 7.64709 19.3803 7.69C19.3795 7.74317 19.3741 7.79616 19.364 7.84838C19.3563 7.88347 19.3478 7.91942 19.3367 7.95366C19.3307 7.9725 19.3238 7.99218 19.3161 8.01101L14.9984 19.3318C14.9451 19.4721 14.8575 19.5967 14.7435 19.6944C14.6295 19.7921 14.4929 19.8596 14.3461 19.8907C14.2846 19.9052 14.2218 19.913 14.1586 19.9139ZM10.6884 14.2744L13.8128 17.398L16.5897 10.1091L10.6884 14.2744ZM7.23265 12.5196L9.15183 13.1591L12.7762 10.6004L7.23265 12.5196ZM11.9981 23.6974C5.54716 23.6974 0.299805 18.4501 0.299805 11.9992C0.299805 5.54827 5.54716 0.300049 11.9981 0.300049C18.449 0.300049 23.6972 5.54827 23.6972 11.9992C23.6972 18.4501 18.449 23.6974 11.9981 23.6974ZM11.9981 2.09767C10.0397 2.09767 8.12538 2.67838 6.49709 3.76637C4.8688 4.85436 3.5997 6.40077 2.85028 8.21003C2.10086 10.0193 1.90478 12.0101 2.28683 13.9308C2.66888 15.8515 3.6119 17.6158 4.99665 19.0006C6.3814 20.3853 8.14568 21.3283 10.0664 21.7104C11.9871 22.0924 13.9779 21.8964 15.7872 21.1469C17.5965 20.3975 19.1429 19.1284 20.2309 17.5001C21.3188 15.8718 21.8996 13.9575 21.8996 11.9992C21.898 9.37323 20.8544 6.85522 18.998 4.998C17.1416 3.14077 14.624 2.09613 11.9981 2.09341V2.09767Z" fill="#A6C0FB"/>
</g>
<defs>
<clipPath id="clip0_2168_34091">
<rect width="24" height="24" fill="white"/>
</clipPath>
</defs>
</svg>
