<svg width="20" height="21" viewBox="0 0 20 21" fill="none" xmlns="http://www.w3.org/2000/svg">
<path d="M19.0019 9.95383C18.8934 8.19875 18.2738 6.51378 17.2193 5.10663C16.1648 3.69948 14.7215 2.63167 13.0675 2.03483C11.4134 1.438 9.6209 1.33823 7.91085 1.74784C6.2008 2.15745 4.64799 3.05853 3.44385 4.33998C2.23971 5.62143 1.43689 7.22723 1.13435 8.95943C0.831816 10.6916 1.04279 12.4745 1.74127 14.0883C2.43974 15.702 3.59518 17.0761 5.06515 18.0411C6.53512 19.0061 8.25535 19.5199 10.0138 19.5191H15.2511C16.2455 19.5183 17.1989 19.123 17.902 18.4199C18.6051 17.7167 19.0004 16.7633 19.0012 15.769L19.0019 9.95383ZM17.5039 15.769C17.5042 16.0645 17.4462 16.3572 17.3332 16.6303C17.2202 16.9034 17.0545 17.1516 16.8455 17.3605C16.6365 17.5695 16.3884 17.7352 16.1153 17.8482C15.8422 17.9612 15.5495 18.0192 15.254 18.0189H10.0145C8.95613 18.0186 7.90971 17.7952 6.94348 17.3633C5.97726 16.9314 5.11294 16.3007 4.4069 15.5122C3.69799 14.7239 3.16576 13.7931 2.84589 12.7823C2.52602 11.7715 2.42589 10.704 2.55221 9.65137C2.75125 7.99085 3.49721 6.44378 4.67252 5.254C5.84784 4.06422 7.38567 3.2994 9.04363 3.08007C9.36708 3.03932 9.69276 3.01882 10.0188 3.01871C11.7667 3.0137 13.4605 3.62436 14.8032 4.74357C15.5872 5.3948 16.2307 6.19848 16.6949 7.10587C17.159 8.01327 17.434 9.00546 17.5032 10.0223L17.5039 15.769ZM7.00347 8.26821H10.0038C10.1944 8.25644 10.3734 8.17239 10.5043 8.03322C10.6351 7.89405 10.708 7.71022 10.708 7.5192C10.708 7.32818 10.6351 7.14433 10.5043 7.00516C10.3734 6.86599 10.1944 6.78196 10.0038 6.77019H7.00133C6.81067 6.78196 6.63168 6.86599 6.50083 7.00516C6.36999 7.14433 6.29714 7.32818 6.29714 7.5192C6.29714 7.71022 6.36999 7.89405 6.50083 8.03322C6.63168 8.17239 6.81067 8.25644 7.00133 8.26821H7.00347ZM13.0041 9.76623H7.00133C6.80833 9.77465 6.62604 9.85725 6.49246 9.99679C6.35887 10.1363 6.2843 10.3221 6.2843 10.5152C6.2843 10.7084 6.35887 10.8941 6.49246 11.0337C6.62604 11.1732 6.80833 11.2558 7.00133 11.2642H13.002C13.195 11.2558 13.3773 11.1732 13.5108 11.0337C13.6444 10.8941 13.719 10.7084 13.719 10.5152C13.719 10.3221 13.6444 10.1363 13.5108 9.99679C13.3773 9.85725 13.195 9.77465 13.002 9.76623H13.0041ZM13.0041 12.7658H7.00133C6.81067 12.7776 6.63168 12.8616 6.50083 13.0008C6.36999 13.14 6.29714 13.3238 6.29714 13.5149C6.29714 13.7059 6.36999 13.8897 6.50083 14.0289C6.63168 14.168 6.81067 14.2521 7.00133 14.2639H13.002C13.1926 14.2521 13.3716 14.168 13.5025 14.0289C13.6333 13.8897 13.7062 13.7059 13.7062 13.5149C13.7062 13.3238 13.6333 13.14 13.5025 13.0008C13.3716 12.8616 13.1926 12.7776 13.002 12.7658H13.0041Z" fill="#BDBDBD"/>
</svg>
