<svg width="12" height="12" viewBox="0 0 12 12" fill="none" xmlns="http://www.w3.org/2000/svg">
<g clip-path="url(#clip0_2671_14983)">
<path d="M0.90229 11.2019C0.834002 11.2018 0.766621 11.1862 0.705264 11.1562C0.643907 11.1263 0.590188 11.0827 0.548187 11.0289C0.506185 10.975 0.477006 10.9123 0.462865 10.8455C0.448725 10.7787 0.449996 10.7096 0.46658 10.6433L1.06579 8.24348C1.08532 8.16437 1.12618 8.09212 1.18392 8.03462L8.13602 1.08294C8.44534 0.773775 8.86478 0.600098 9.30212 0.600098C9.73946 0.600098 10.1589 0.773775 10.4682 1.08294L10.5718 1.18609C10.8809 1.49554 11.0545 1.91503 11.0545 2.35241C11.0545 2.78978 10.8809 3.20927 10.5718 3.51872L9.62162 4.46847L3.62013 10.47C3.56254 10.5277 3.49034 10.5687 3.41126 10.5885L1.01143 11.1877C0.975763 11.1969 0.93911 11.2016 0.90229 11.2019ZM1.9081 8.58203L1.5199 10.1348L3.07271 9.74664L8.66674 4.1526L7.50342 2.988L1.9081 8.58203ZM8.13773 2.35241L9.30105 3.51701L9.93492 2.88314C10.0755 2.7423 10.1545 2.55142 10.1545 2.35241C10.1545 2.1534 10.0755 1.96251 9.93492 1.82168L9.83178 1.71853C9.69094 1.57792 9.50006 1.49894 9.30105 1.49894C9.10203 1.49894 8.91115 1.57792 8.77032 1.71853L8.13773 2.35241ZM11.1021 11.2019H6.30244C6.18325 11.2019 6.06894 11.1545 5.98466 11.0702C5.90038 10.9859 5.85303 10.8716 5.85303 10.7525C5.85303 10.6333 5.90038 10.519 5.98466 10.4347C6.06894 10.3504 6.18325 10.303 6.30244 10.303H11.1021C11.2213 10.303 11.3356 10.3504 11.4199 10.4347C11.5042 10.519 11.5515 10.6333 11.5515 10.7525C11.5515 10.8716 11.5042 10.9859 11.4199 11.0702C11.3356 11.1545 11.2213 11.2019 11.1021 11.2019Z" fill="#828282"/>
</g>
<defs>
<clipPath id="clip0_2671_14983">
<rect width="12" height="12" fill="white"/>
</clipPath>
</defs>
</svg>
