<svg width="12" height="12" viewBox="0 0 12 12" fill="none" xmlns="http://www.w3.org/2000/svg">
<g clip-path="url(#clip0_2719_35050)">
<path d="M1.13871 10.9538C1.07368 10.9538 1.00951 10.939 0.95107 10.9104C0.892635 10.8819 0.841474 10.8404 0.801473 10.7891C0.761471 10.7378 0.733681 10.6781 0.720214 10.6145C0.706747 10.5508 0.707957 10.485 0.723752 10.4219L1.29443 8.13635C1.31303 8.061 1.35194 7.9922 1.40693 7.93743L8.02798 1.31679C8.32257 1.02234 8.72204 0.856934 9.13855 0.856934C9.55506 0.856934 9.95453 1.02234 10.2491 1.31679L10.3478 1.41502C10.6421 1.70974 10.8075 2.10925 10.8075 2.5258C10.8075 2.94235 10.6421 3.34186 10.3478 3.63658L9.44284 4.5411L3.72713 10.2568C3.67228 10.3118 3.60352 10.3508 3.52821 10.3697L1.24266 10.9404C1.20869 10.9491 1.17378 10.9536 1.13871 10.9538ZM2.09663 8.45878L1.72692 9.93764L3.20578 9.56793L8.53343 4.24027L7.42551 3.13112L2.09663 8.45878ZM8.02961 2.5258L9.13753 3.63495L9.74122 3.03126C9.87514 2.89713 9.95036 2.71534 9.95036 2.5258C9.95036 2.33626 9.87514 2.15447 9.74122 2.02035L9.64299 1.92211C9.50886 1.78819 9.32707 1.71298 9.13753 1.71298C8.94799 1.71298 8.7662 1.78819 8.63208 1.92211L8.02961 2.5258ZM10.8528 10.9538H6.28171C6.1682 10.9538 6.05933 10.9088 5.97907 10.8285C5.8988 10.7482 5.85371 10.6394 5.85371 10.5258C5.85371 10.4123 5.8988 10.3035 5.97907 10.2232C6.05933 10.1429 6.1682 10.0978 6.28171 10.0978H10.8528C10.9663 10.0978 11.0752 10.1429 11.1555 10.2232C11.2357 10.3035 11.2808 10.4123 11.2808 10.5258C11.2808 10.6394 11.2357 10.7482 11.1555 10.8285C11.0752 10.9088 10.9663 10.9538 10.8528 10.9538Z" fill="#7D98F6"/>
</g>
<defs>
<clipPath id="clip0_2719_35050">
<rect width="11.4286" height="11.4286" fill="white" transform="translate(0.28125 0.285645)"/>
</clipPath>
</defs>
</svg>
