<svg width="20" height="20" viewBox="0 0 20 20" fill="none" xmlns="http://www.w3.org/2000/svg">
<g clip-path="url(#clip0_4801_46332)">
<path d="M13.0571 6.73176L10.4629 1.98438H9.61521L6.81761 6.83349L1.375 7.73212V8.46119L5.22382 12.4796L4.22339 18.3291H4.91862L10.0391 15.8197L15.0748 18.4308L15.5326 18.0069L14.7017 12.2931L18.3302 9.02071L18.4319 7.90167L13.0571 6.73176Z" fill="white"/>
<path fill-rule="evenodd" clip-rule="evenodd" d="M19.435 7.72626C19.363 7.50092 19.2289 7.30045 19.048 7.14789C18.8672 6.99534 18.647 6.89688 18.4128 6.86383L13.3652 6.13051L11.1096 1.55585C11.0051 1.34387 10.8433 1.16538 10.6426 1.04057C10.4419 0.91576 10.2103 0.849609 9.97393 0.849609C9.73759 0.849609 9.50597 0.91576 9.30527 1.04057C9.10457 1.16538 8.94281 1.34387 8.83829 1.55585L6.58128 6.12981L1.53295 6.86311C1.29913 6.89728 1.07952 6.99616 0.898948 7.14857C0.718374 7.30099 0.584026 7.50088 0.511085 7.72564C0.438143 7.9504 0.429519 8.19108 0.48618 8.42049C0.542841 8.64989 0.662535 8.85888 0.831732 9.02383L4.48405 12.5834L3.61947 17.6111C3.5865 17.7919 3.59417 17.9779 3.64191 18.1554C3.68966 18.3329 3.77629 18.4976 3.89554 18.6376C4.01446 18.78 4.16312 18.8947 4.33109 18.9736C4.49906 19.0524 4.68226 19.0936 4.86782 19.0941C5.07361 19.0941 5.27622 19.0433 5.45776 18.9464L9.96823 16.5717L14.4837 18.945C14.665 19.0421 14.8673 19.093 15.0729 19.0934C15.2586 19.0928 15.4418 19.0516 15.6099 18.9727C15.778 18.8939 15.9268 18.7792 16.0459 18.6368C16.1648 18.4967 16.2512 18.332 16.2988 18.1545C16.3464 17.977 16.3541 17.7912 16.3213 17.6104L15.461 12.5834L19.1133 9.02383C19.2834 8.85962 19.4038 8.6508 19.4607 8.4213C19.5176 8.19181 19.5087 7.95093 19.435 7.72626ZM13.9273 12.7047L14.7219 17.3414L10.3584 15.048C10.241 14.9789 10.1073 14.9422 9.97108 14.9417C9.84666 14.9416 9.72414 14.9722 9.61441 15.0309L5.22164 17.3407L6.0163 12.704C6.05107 12.5016 6.03606 12.2938 5.97255 12.0986C5.90904 11.9033 5.79895 11.7265 5.65179 11.5833L2.28624 8.30194L6.93795 7.62569C7.14117 7.59623 7.33418 7.51778 7.50033 7.39711C7.66649 7.27644 7.8008 7.11716 7.89169 6.93302L9.9718 2.71789L12.0519 6.93302C12.1429 7.11708 12.2772 7.2763 12.4434 7.39695C12.6095 7.51761 12.8025 7.59611 13.0056 7.62569L17.6581 8.30194L14.2918 11.5833C14.1446 11.7265 14.0345 11.9033 13.971 12.0986C13.9075 12.2938 13.8925 12.5016 13.9273 12.704V12.7047Z" fill="white"/>
</g>
<defs>
<clipPath id="clip0_4801_46332">
<rect width="20" height="20" fill="white"/>
</clipPath>
</defs>
</svg>
