<svg width="70" height="70" viewBox="0 0 70 70" fill="none" xmlns="http://www.w3.org/2000/svg">
<path d="M29.3563 23.2276C20.9563 17.4963 13.125 21.8713 6.5625 28.6088L21.0875 37.3588" stroke="#BDBDBD" stroke-width="4" stroke-linecap="round" stroke-linejoin="round"/>
<path d="M46.7719 40.6406C52.5031 49.0406 48.1281 56.8719 41.3906 63.4344L32.6406 48.9094" stroke="#BDBDBD" stroke-width="4" stroke-linecap="round" stroke-linejoin="round"/>
<path d="M21.0898 37.3174L32.6836 48.9111C41.9586 43.3549 52.5023 37.9736 57.3148 32.9861C67.7273 22.5736 61.6898 8.31111 61.6898 8.31111C61.6898 8.31111 47.4273 2.27361 37.0148 12.6861C32.0273 17.4986 26.6023 28.0861 21.0898 37.3174Z" stroke="#BDBDBD" stroke-width="4" stroke-linecap="round" stroke-linejoin="round"/>
<path d="M27.4805 26.3359L43.668 42.5234" stroke="#BDBDBD" stroke-width="4" stroke-linecap="round" stroke-linejoin="round"/>
<path d="M50.3125 21.875C51.5206 21.875 52.5 20.8956 52.5 19.6875C52.5 18.4794 51.5206 17.5 50.3125 17.5C49.1044 17.5 48.125 18.4794 48.125 19.6875C48.125 20.8956 49.1044 21.875 50.3125 21.875Z" stroke="#BDBDBD" stroke-width="4" stroke-linecap="round" stroke-linejoin="round"/>
<path d="M20.475 58.7973C17.9375 61.2473 6.5625 63.4348 6.5625 63.4348C6.5625 63.4348 8.75 52.0598 11.2 49.5223C11.8008 48.8775 12.5253 48.3604 13.3303 48.0017C14.1353 47.643 15.0043 47.4502 15.8854 47.4346C16.7666 47.4191 17.6418 47.5812 18.459 47.9112C19.2761 48.2413 20.0184 48.7325 20.6416 49.3557C21.2647 49.9789 21.756 50.7212 22.0861 51.5383C22.4161 52.3555 22.5782 53.2307 22.5627 54.1119C22.5471 54.993 22.3543 55.862 21.9956 56.667C21.6369 57.472 21.1198 58.1965 20.475 58.7973V58.7973Z" stroke="#BDBDBD" stroke-width="4" stroke-linecap="round" stroke-linejoin="round"/>
</svg>
