<svg width="22" height="22" viewBox="0 0 22 22" fill="none" xmlns="http://www.w3.org/2000/svg">
<path d="M12.1634 0.200197C12.481 0.200197 12.765 0.397835 12.8719 0.693751L13.6343 2.80729C13.9076 2.87532 14.1419 2.94336 14.3406 3.01464C14.5577 3.0924 14.8374 3.21012 15.183 3.37104L16.9585 2.43145C17.1034 2.35467 17.2693 2.32696 17.4313 2.35246C17.5933 2.37797 17.7427 2.45533 17.857 2.57293L19.4186 4.18751C19.626 4.40243 19.6843 4.7167 19.5677 4.99102L18.735 6.94255C18.8732 7.19635 18.9834 7.41343 19.0676 7.59487C19.1584 7.7925 19.2707 8.06466 19.4046 8.41566L21.3453 9.24725C21.6369 9.37145 21.8172 9.66304 21.7978 9.97516L21.6552 12.2161C21.6455 12.3617 21.5932 12.5012 21.5049 12.6174C21.4166 12.7335 21.2961 12.8212 21.1585 12.8695L19.3204 13.5229C19.2674 13.7767 19.2124 13.9938 19.154 14.1774C19.06 14.4609 18.9526 14.7399 18.8322 15.0133L19.7556 17.0545C19.8207 17.1979 19.8383 17.3584 19.8056 17.5125C19.773 17.6666 19.6919 17.8062 19.5741 17.9109L17.8181 19.479C17.7025 19.5819 17.5582 19.6469 17.4045 19.6654C17.2509 19.684 17.0953 19.6551 16.9585 19.5827L15.1485 18.6237C14.8653 18.7736 14.5731 18.906 14.2737 19.02L13.4832 19.316L12.7812 21.2599C12.7292 21.4023 12.6353 21.5256 12.512 21.6137C12.3886 21.7018 12.2415 21.7505 12.09 21.7535L10.0381 21.7999C9.88252 21.804 9.72952 21.7598 9.60014 21.6733C9.47075 21.5869 9.37134 21.4625 9.31558 21.3172L8.48833 19.128C8.20608 19.0316 7.92661 18.9271 7.65028 18.8148C7.42426 18.717 7.20166 18.6115 6.98286 18.4984L4.93093 19.3754C4.79573 19.433 4.64667 19.4502 4.50191 19.4247C4.35714 19.3992 4.22291 19.3321 4.11556 19.2317L2.59713 17.8072C2.48408 17.7016 2.40709 17.5632 2.37705 17.4114C2.34701 17.2597 2.36544 17.1023 2.42974 16.9616L3.31207 15.0392C3.19472 14.8115 3.08593 14.5795 2.98592 14.3437C2.86918 14.0551 2.76113 13.763 2.66193 13.4678L0.728797 12.8792C0.571664 12.8317 0.434609 12.7337 0.33892 12.6003C0.24323 12.4669 0.19426 12.3057 0.199616 12.1416L0.275213 10.067C0.280594 9.93159 0.322879 9.80028 0.397495 9.68721C0.472111 9.57414 0.576218 9.48362 0.698558 9.42544L2.72673 8.4513C2.82068 8.10678 2.90276 7.83894 2.97512 7.64347C3.077 7.38238 3.19015 7.12582 3.31423 6.87452L2.43514 5.01694C2.36842 4.87587 2.34817 4.71728 2.37727 4.56398C2.40638 4.41067 2.48336 4.27054 2.59713 4.16375L4.1134 2.73169C4.21969 2.63143 4.35269 2.56403 4.49638 2.53759C4.64008 2.51115 4.78836 2.5268 4.92337 2.58265L6.97314 3.42936C7.19993 3.27816 7.40513 3.15612 7.59088 3.05784C7.81227 2.94012 8.10818 2.81701 8.48077 2.68417L9.19354 0.695911C9.24624 0.550403 9.34256 0.424706 9.46936 0.335985C9.59616 0.247264 9.74725 0.199843 9.902 0.200197H12.1634ZM11.6343 1.68734H10.4323L9.77888 3.51684C9.74047 3.62351 9.67831 3.72007 9.59712 3.79921C9.51592 3.87835 9.41781 3.938 9.31018 3.97367C8.83932 4.13027 8.49913 4.26527 8.30042 4.37003C8.08982 4.48127 7.82091 4.65082 7.50124 4.87762C7.39662 4.95105 7.27515 4.99687 7.14809 5.01084C7.02103 5.02481 6.89251 5.00648 6.77443 4.95754L4.7981 4.14215L4.02808 4.87006L4.8305 6.56564C4.87853 6.66652 4.90292 6.77703 4.9018 6.88877C4.90067 7.0005 4.87407 7.1105 4.82402 7.21039C4.60802 7.64347 4.46223 7.96314 4.38879 8.1597C4.27617 8.4869 4.17887 8.81918 4.0972 9.15545C4.07007 9.26069 4.02024 9.35873 3.95121 9.44269C3.88219 9.52664 3.79563 9.59448 3.69761 9.64144L1.76448 10.5692L1.7256 11.6275L3.47514 12.1589C3.70733 12.2291 3.89093 12.4073 3.96761 12.6362C4.1404 13.1546 4.27863 13.537 4.37799 13.7767C4.50964 14.081 4.65523 14.379 4.8143 14.6699C4.86811 14.7699 4.89797 14.8811 4.90153 14.9947C4.90509 15.1082 4.88226 15.2211 4.83482 15.3243L4.02376 17.0934L4.79162 17.8148L6.71611 16.9918C6.81977 16.9475 6.932 16.9269 7.04464 16.9314C7.15728 16.9358 7.26751 16.9654 7.36733 17.0178C7.76151 17.2251 8.05526 17.3687 8.24102 17.4476C8.43001 17.5264 8.7918 17.6582 9.31666 17.8375C9.42086 17.873 9.51592 17.9312 9.59507 18.0077C9.67422 18.0842 9.73551 18.1773 9.77456 18.2803L10.5392 20.3009L11.5392 20.2793L12.184 18.493C12.2208 18.3911 12.2794 18.2984 12.3557 18.2214C12.432 18.1444 12.5241 18.0848 12.6257 18.047L13.7456 17.6279C14.0285 17.5232 14.372 17.3579 14.7726 17.1312C14.8835 17.0689 15.0083 17.0354 15.1355 17.0339C15.2627 17.0324 15.3882 17.0629 15.5005 17.1225L17.2036 18.0243L18.1616 17.17L17.3235 15.32C17.2805 15.225 17.2581 15.122 17.2579 15.0177C17.2577 14.9135 17.2797 14.8103 17.3224 14.7152C17.519 14.2757 17.6518 13.9441 17.7188 13.7324C17.7846 13.5251 17.8527 13.2259 17.9186 12.8414C17.9412 12.7108 17.9983 12.5887 18.0839 12.4875C18.1695 12.3863 18.2806 12.3098 18.4056 12.2658L20.1854 11.634L20.2632 10.4028L18.5136 9.65332C18.4205 9.61367 18.3364 9.55551 18.2664 9.48236C18.1964 9.40921 18.142 9.32261 18.1065 9.22781C17.9817 8.88355 17.8456 8.54353 17.6982 8.2083C17.5588 7.91641 17.4075 7.63034 17.2447 7.35079C17.1883 7.25202 17.1555 7.14154 17.1489 7.02799C17.1424 6.91444 17.1622 6.80092 17.2069 6.69632L17.9898 4.86034L17.1647 4.00715L15.5578 4.85818C15.4529 4.91382 15.3364 4.94408 15.2176 4.94652C15.0989 4.94896 14.9813 4.92351 14.8741 4.87222C14.5331 4.70262 14.1842 4.5491 13.8287 4.41215C13.5256 4.31036 13.2165 4.2274 12.9032 4.16375C12.7789 4.13739 12.6633 4.07985 12.5673 3.99653C12.4714 3.91322 12.3982 3.80686 12.3546 3.68747L11.6332 1.68626L11.6343 1.68734ZM11.0252 6.2924C13.6549 6.2924 15.7878 8.40162 15.7878 11.0022C15.7878 13.6028 13.6549 15.711 11.0252 15.711C8.39437 15.711 6.26253 13.6028 6.26253 11.0022C6.26253 8.40162 8.39437 6.29348 11.0252 6.29348V6.2924ZM11.0252 7.78062C9.22486 7.78062 7.76583 9.22241 7.76583 11.0022C7.76583 12.782 9.22486 14.2249 11.0252 14.2249C12.8244 14.2249 14.2834 12.782 14.2834 11.0022C14.2834 9.22241 12.8255 7.78062 11.0252 7.78062Z" fill="#BDBDBD"/>
</svg>
