<svg width="16" height="17" viewBox="0 0 16 17" fill="none" xmlns="http://www.w3.org/2000/svg">
<path d="M14.5991 14.4631H2.59898C2.43995 14.4629 2.28748 14.3997 2.17504 14.2872C2.06259 14.1748 1.99935 14.0223 1.9992 13.8633V1.86315C1.98978 1.71062 1.92255 1.56743 1.81121 1.46276C1.69987 1.35808 1.55281 1.2998 1.39999 1.2998C1.24717 1.2998 1.10011 1.35808 0.988769 1.46276C0.87743 1.56743 0.8102 1.71062 0.800781 1.86315V13.8633C0.800933 14.3406 0.990614 14.7983 1.32813 15.1359C1.66564 15.4734 2.12337 15.6631 2.60069 15.6632H14.6008C14.7534 15.6538 14.8966 15.5866 15.0012 15.4752C15.1059 15.3639 15.1642 15.2168 15.1642 15.064C15.1642 14.9112 15.1059 14.7641 15.0012 14.6528C14.8966 14.5414 14.7534 14.4742 14.6008 14.4648L14.5991 14.4631ZM9.79918 13.2647C9.9583 13.2645 10.1109 13.2012 10.2233 13.0886C10.3358 12.9761 10.399 12.8234 10.399 12.6643V8.46471C10.404 8.38291 10.3923 8.30094 10.3644 8.22386C10.3366 8.14677 10.2933 8.0762 10.2371 8.01649C10.181 7.95678 10.1132 7.9092 10.038 7.87668C9.96279 7.84415 9.8817 7.82737 9.79975 7.82737C9.71779 7.82737 9.63671 7.84415 9.56148 7.87668C9.48626 7.9092 9.41849 7.95678 9.36235 8.01649C9.30621 8.0762 9.2629 8.14677 9.23507 8.22386C9.20724 8.30094 9.19549 8.38291 9.20054 8.46471V12.6643C9.20054 12.8235 9.26379 12.9762 9.37638 13.0888C9.48897 13.2014 9.64167 13.2647 9.80089 13.2647H9.79918ZM4.99923 13.2647C5.15836 13.2645 5.31091 13.2012 5.42337 13.0886C5.53584 12.9761 5.59901 12.8234 5.59901 12.6643V8.46471C5.60406 8.38291 5.59232 8.30094 5.56449 8.22386C5.53666 8.14677 5.49334 8.0762 5.4372 8.01649C5.38106 7.95678 5.3133 7.9092 5.23807 7.87668C5.16285 7.84415 5.08176 7.82737 4.9998 7.82737C4.91785 7.82737 4.83676 7.84415 4.76154 7.87668C4.68631 7.9092 4.61855 7.95678 4.56241 8.01649C4.50627 8.0762 4.46295 8.14677 4.43512 8.22386C4.40729 8.30094 4.39555 8.38291 4.4006 8.46471V12.6643C4.4006 12.8235 4.46384 12.9762 4.57643 13.0888C4.68902 13.2014 4.84172 13.2647 5.00095 13.2647H4.99923ZM12.1989 13.2647C12.3581 13.2647 12.5108 13.2014 12.6234 13.0888C12.736 12.9762 12.7992 12.8235 12.7992 12.6643V5.46411C12.8043 5.38231 12.7925 5.30035 12.7647 5.22326C12.7369 5.14618 12.6935 5.0756 12.6374 5.01589C12.5813 4.95618 12.5135 4.90859 12.4383 4.87606C12.363 4.84354 12.282 4.82676 12.2 4.82676C12.1181 4.82676 12.037 4.84354 11.9617 4.87606C11.8865 4.90859 11.8187 4.95618 11.7626 5.01589C11.7065 5.0756 11.6632 5.14618 11.6353 5.22326C11.6075 5.30035 11.5957 5.38231 11.6008 5.46411V12.6637C11.6008 12.8229 11.664 12.9755 11.7764 13.0881C11.8889 13.2006 12.0415 13.2639 12.2006 13.2641L12.1989 13.2647ZM7.39892 13.2647C7.55815 13.2647 7.71084 13.2014 7.82343 13.0888C7.93602 12.9762 7.99927 12.8235 7.99927 12.6643V3.42395C7.98986 3.27142 7.92262 3.12822 7.81128 3.02355C7.69994 2.91887 7.55288 2.86061 7.40007 2.86061C7.24725 2.86061 7.10018 2.91887 6.98884 3.02355C6.8775 3.12822 6.81028 3.27142 6.80086 3.42395V12.6637C6.80086 12.8229 6.86403 12.9755 6.97649 13.0881C7.08895 13.2006 7.24151 13.2639 7.40063 13.2641L7.39892 13.2647Z" fill="#A6C0FB"/>
</svg>
