<svg width="20" height="20" viewBox="0 0 20 20" fill="none" xmlns="http://www.w3.org/2000/svg">
<g id="Icon" clip-path="url(#clip0_1774_34905)">
<path id="Vector" d="M18.604 4.28719H16.464H14.3525C14.3454 3.14584 13.896 2.07583 13.0899 1.26975C12.2695 0.449406 11.1853 0 10.0368 0C8.88116 0 7.79688 0.449406 6.98366 1.26262C6.17045 2.07583 5.72105 3.14584 5.71391 4.28719H3.60242H1.46239C1.04865 4.28719 0.713379 4.62246 0.713379 5.0362C0.713379 5.44994 1.04865 5.78521 1.46239 5.78521H2.85341V17.8906C2.85341 18.4756 3.08168 19.0177 3.48828 19.4315C3.90202 19.8452 4.44416 20.0663 5.0291 20.0663H15.0302C15.6151 20.0663 16.1573 19.8381 16.571 19.4315C16.9847 19.0177 17.2059 18.4756 17.2059 17.8906V5.78521H18.5969C19.0106 5.78521 19.3459 5.44994 19.3459 5.0362C19.3459 4.62246 19.0178 4.28719 18.604 4.28719ZM8.03941 2.3255C8.57442 1.79049 9.28063 1.49802 10.0368 1.49802C10.7929 1.49802 11.4991 1.79049 12.0341 2.3255C12.562 2.85337 12.8545 3.54532 12.8616 4.28719H7.21193C7.21907 3.54532 7.51154 2.84624 8.03941 2.3255ZM15.715 17.8906C15.715 18.069 15.6437 18.2402 15.5152 18.3686C15.3868 18.497 15.2156 18.5683 15.0373 18.5683H5.03624C4.8579 18.5683 4.6867 18.497 4.5583 18.3686C4.4299 18.2402 4.35856 18.069 4.35856 17.8906V5.78521H6.45579C6.46292 5.78521 6.46292 5.78521 6.47006 5.78521C6.47719 5.78521 6.47719 5.78521 6.48432 5.78521H13.6035C13.6106 5.78521 13.6106 5.78521 13.6178 5.78521C13.6249 5.78521 13.6249 5.78521 13.632 5.78521H15.7293V17.8906H15.715ZM8.63862 9.32339V15.0373C8.63862 15.451 8.30335 15.7863 7.88961 15.7863C7.47587 15.7863 7.1406 15.451 7.1406 15.0373V9.32339C7.1406 8.90965 7.47587 8.57438 7.88961 8.57438C8.30335 8.57438 8.63862 8.90965 8.63862 9.32339ZM12.9258 9.32339V15.0373C12.9258 15.451 12.5905 15.7863 12.1768 15.7863C11.7631 15.7863 11.4278 15.451 11.4278 15.0373V9.32339C11.4278 8.90965 11.7631 8.57438 12.1768 8.57438C12.5905 8.57438 12.9258 8.90965 12.9258 9.32339Z" fill="#828282"/>
</g>
<defs>
<clipPath id="clip0_1774_34905">
<rect width="20" height="20" fill="white"/>
</clipPath>
</defs>
</svg>
