<svg width="448" height="104" viewBox="0 0 448 104" fill="none" xmlns="http://www.w3.org/2000/svg">
<path d="M215.191 2.04102H245.339V103.263H215.191V2.04102Z" fill="#FFC071"/>
<path d="M157.879 0C145.839 0 136.342 3.36786 129.35 8.98498C122.297 3.36786 112.746 0 100.711 0V28.4028C109.594 28.4028 113.963 33.9385 113.963 42.9682V103.264H144.623V42.9682C144.623 33.9385 148.991 28.4028 157.879 28.4028C166.766 28.4028 171.146 33.9589 171.146 42.9682V103.264H201.441V42.9682C201.424 19.5195 186.859 0 157.879 0Z" fill="#FE7C11"/>
<path d="M100.713 74.8649C91.8302 74.8649 87.4617 69.3292 87.4617 60.2995V0H56.8015V60.2995C56.8015 69.3292 52.4331 74.8649 43.5498 74.8649C34.6666 74.8649 30.2942 69.3292 30.2942 60.2995V0H0L0 60.2995C0 83.7482 14.5654 103.264 43.5498 103.264C55.5854 103.264 65.0827 99.8959 72.0746 94.2787C79.1276 99.8959 88.6779 103.264 100.713 103.264V74.8649Z" fill="#FE7C11"/>
<path d="M215.016 1.86133H245.194V103.183H215.016V1.86133Z" fill="#FFC071"/>
<path d="M338.135 28.686H310.012V103.183H279.822V28.686H251.684V1.86133H338.135V28.686Z" fill="#FFC071"/>
<path d="M411.1 61.9256V103.183H381.066V62.2188L344.621 1.86133H378.299L396.085 34.8116L413.723 1.86133H447.401L411.1 61.9256Z" fill="#FFC071"/>
</svg>
