<svg width="20" height="20" viewBox="0 0 20 20" fill="none" xmlns="http://www.w3.org/2000/svg">
<path fill-rule="evenodd" clip-rule="evenodd" d="M15.9987 2.49819H3.99886C3.60156 2.49819 3.22053 2.65603 2.9396 2.93696C2.65866 3.21789 2.50084 3.59891 2.50084 3.99621V15.9961C2.50084 16.3934 2.65866 16.7744 2.9396 17.0553C3.22053 17.3363 3.60156 17.4941 3.99886 17.4941H15.9987C16.396 17.4941 16.777 17.3363 17.058 17.0553C17.3389 16.7744 17.4967 16.3934 17.4967 15.9961V3.99837C17.497 3.80147 17.4585 3.60642 17.3833 3.42442C17.3082 3.24243 17.1979 3.07706 17.0587 2.93773C16.9196 2.7984 16.7544 2.68785 16.5725 2.61244C16.3906 2.53702 16.1956 2.49819 15.9987 2.49819ZM3.99886 1.00017C3.20312 1.00017 2.43998 1.31629 1.87731 1.87896C1.31464 2.44163 0.998535 3.20476 0.998535 4.0005V16.0004C0.998724 16.796 1.31491 17.5589 1.87756 18.1215C2.44021 18.684 3.20324 19 3.99886 19H15.9987C16.3928 19.0004 16.783 18.9232 17.1472 18.7726C17.5113 18.622 17.8422 18.4011 18.1208 18.1225C18.3994 17.8438 18.6204 17.513 18.7709 17.1488C18.9215 16.7847 18.9988 16.3944 18.9983 16.0004V3.99837C18.9984 3.6044 18.9209 3.21424 18.7702 2.85023C18.6195 2.48622 18.3986 2.15545 18.12 1.87684C17.8415 1.59822 17.5107 1.37722 17.1468 1.22644C16.7828 1.07565 16.3927 0.998047 15.9987 0.998047L3.99886 1.00017ZM9.99878 11.6468C10.1977 11.6466 10.3884 11.5675 10.529 11.4268C10.6695 11.2861 10.7485 11.0953 10.7485 10.8964V5.6469C10.7548 5.54465 10.7401 5.44218 10.7053 5.34582C10.6706 5.24946 10.6164 5.16124 10.5462 5.0866C10.4761 5.01197 10.3914 4.95251 10.2973 4.91186C10.2033 4.8712 10.1019 4.8502 9.9995 4.8502C9.89705 4.8502 9.7957 4.8712 9.70166 4.91186C9.60763 4.95251 9.52292 5.01197 9.45275 5.0866C9.38258 5.16124 9.32843 5.24946 9.29364 5.34582C9.25886 5.44218 9.24417 5.54465 9.25049 5.6469V10.8964C9.25049 10.9949 9.2699 11.0925 9.30761 11.1836C9.34532 11.2746 9.4006 11.3573 9.47028 11.427C9.53997 11.4967 9.62269 11.552 9.71374 11.5897C9.80479 11.6274 9.90238 11.6468 10.0009 11.6468H9.99878ZM10.5744 14.4866C10.4409 14.6254 10.2632 14.7135 10.0718 14.7355C9.88044 14.7576 9.68736 14.7124 9.52567 14.6077C9.36399 14.503 9.24378 14.3453 9.18568 14.1616C9.12758 13.9779 9.13521 13.7798 9.20724 13.6011C9.27928 13.4225 9.41125 13.2744 9.5805 13.1825C9.74975 13.0905 9.94573 13.0603 10.1348 13.097C10.3239 13.1337 10.4944 13.2351 10.6169 13.3837C10.7394 13.5324 10.8064 13.719 10.8063 13.9117C10.8084 14.0179 10.789 14.1234 10.7491 14.2219C10.7093 14.3204 10.6498 14.4097 10.5744 14.4845V14.4866Z" fill="#828282"/>
</svg>
