<svg width="20" height="20" viewBox="0 0 20 20" fill="none" xmlns="http://www.w3.org/2000/svg">
<path fill-rule="evenodd" clip-rule="evenodd" d="M16.0002 2.49917H4.00032C3.60302 2.49917 3.22199 2.657 2.94106 2.93794C2.66013 3.21887 2.5023 3.59989 2.5023 3.99719V15.9971C2.5023 16.3944 2.66013 16.7754 2.94106 17.0563C3.22199 17.3372 3.60302 17.4951 4.00032 17.4951H16.0002C16.3975 17.4951 16.7785 17.3372 17.0594 17.0563C17.3404 16.7754 17.4982 16.3944 17.4982 15.9971V3.99935C17.4985 3.80245 17.4599 3.6074 17.3848 3.4254C17.3096 3.2434 17.1993 3.07803 17.0602 2.9387C16.9211 2.79937 16.7558 2.68883 16.5739 2.61342C16.3921 2.538 16.1971 2.49917 16.0002 2.49917ZM4.00032 1.00115C3.20459 1.00115 2.44144 1.31727 1.87877 1.87994C1.3161 2.44261 1 3.20574 1 4.00147V16.0013C1.00019 16.797 1.31637 17.5599 1.87902 18.1224C2.44167 18.6849 3.20471 19.0009 4.00032 19.0009H16.0002C16.3942 19.0014 16.7845 18.9241 17.1486 18.7736C17.5128 18.623 17.8436 18.4021 18.1223 18.1234C18.4009 17.8448 18.6218 17.5139 18.7724 17.1498C18.923 16.7857 19.0003 16.3954 18.9998 16.0013V3.99935C18.9999 3.60537 18.9224 3.21522 18.7717 2.85121C18.621 2.4872 18.4 2.15643 18.1215 1.87781C17.8429 1.5992 17.5122 1.3782 17.1482 1.22741C16.7843 1.07662 16.3942 0.999023 16.0002 0.999023L4.00032 1.00115ZM10.0002 11.6478C10.1992 11.6476 10.3898 11.5685 10.5304 11.4278C10.671 11.2871 10.75 11.0963 10.75 10.8974V5.64787C10.7563 5.54563 10.7416 5.44315 10.7068 5.34679C10.672 5.25044 10.6179 5.16222 10.5477 5.08758C10.4775 5.01294 10.3928 4.95349 10.2988 4.91283C10.2048 4.87217 10.1034 4.85118 10.001 4.85118C9.89852 4.85118 9.79716 4.87217 9.70313 4.91283C9.6091 4.95349 9.52439 5.01294 9.45422 5.08758C9.38405 5.16222 9.32989 5.25044 9.29511 5.34679C9.26032 5.44315 9.24564 5.54563 9.25195 5.64787V10.8974C9.25195 10.9959 9.27136 11.0935 9.30908 11.1845C9.34679 11.2756 9.40206 11.3583 9.47175 11.428C9.54143 11.4977 9.62416 11.553 9.71521 11.5907C9.80625 11.6284 9.90384 11.6478 10.0024 11.6478H10.0002ZM10.5759 14.4876C10.4423 14.6264 10.2646 14.7144 10.0733 14.7365C9.88191 14.7586 9.68882 14.7134 9.52714 14.6087C9.36545 14.504 9.24525 14.3462 9.18715 14.1626C9.12905 13.9789 9.13667 13.7808 9.20871 13.6021C9.28075 13.4234 9.41272 13.2754 9.58197 13.1834C9.75122 13.0914 9.9472 13.0612 10.1363 13.098C10.3254 13.1347 10.4958 13.2361 10.6183 13.3847C10.7409 13.5334 10.8078 13.72 10.8077 13.9127C10.8099 14.0189 10.7905 14.1244 10.7506 14.2229C10.7107 14.3213 10.6513 14.4107 10.5759 14.4855V14.4876Z" fill="#828282"/>
</svg>
