<svg width="20" height="20" viewBox="0 0 20 20" fill="none" xmlns="http://www.w3.org/2000/svg">
<path d="M18.9029 10.7011C18.9029 10.6654 18.9029 10.6297 18.9029 10.5941V8.04744C18.9029 3.65325 15.3219 0.0722656 10.9277 0.0722656H9.12293C4.72161 0.0722656 1.14062 3.65325 1.14062 8.04744L1.14776 19.2255C1.14776 19.6393 1.48303 19.9745 1.89677 19.9745H13.5029C13.5171 19.9745 13.5314 19.9745 13.5385 19.9745C13.5528 19.9745 13.5671 19.9745 13.5742 19.9745H18.1539C18.3536 19.9745 18.5462 19.8961 18.6817 19.7534C18.8244 19.6107 18.9029 19.4253 18.9029 19.2255V10.7011ZM17.4048 10.6797C17.3977 10.8152 17.3478 10.9365 17.255 11.0363C17.1766 11.122 17.0696 11.179 16.9554 11.2004C16.934 11.1933 16.9198 11.1862 16.8984 11.179C16.6915 11.1005 16.4632 11.122 16.2706 11.229C16.078 11.336 15.9425 11.5286 15.9068 11.7426C15.4503 14.2036 13.4815 16.1368 11.0062 16.5434C10.999 16.5434 10.9919 16.5434 10.9848 16.5434C10.3285 16.6718 9.70788 16.6718 9.08013 16.5434C9.073 16.5434 9.06587 16.5434 9.0516 16.5362C6.6619 16.1439 4.87854 14.3035 4.40774 11.7354C4.36494 11.5143 4.2294 11.3288 4.04393 11.2218C3.9298 11.1576 3.80139 11.122 3.67299 11.122C3.58739 11.122 3.49466 11.1362 3.40906 11.1719C3.34486 11.1933 3.28065 11.2076 3.20932 11.2076C3.05238 11.2076 2.90258 11.1434 2.79558 11.0292C2.68858 10.9151 2.63151 10.7653 2.64578 10.6012C2.66005 10.3301 2.88832 10.0947 3.16652 10.0733C3.25212 10.0662 3.33059 10.0805 3.40906 10.109C3.63733 10.1946 3.89413 10.1589 4.09387 10.0234C4.24367 9.9164 4.35067 9.75947 4.39347 9.58113C5.99849 9.33859 7.43231 8.51825 8.44526 7.26276C10.3713 9.32433 13.0321 10.3658 16.3776 10.3658C16.613 10.3658 16.8199 10.2588 16.9554 10.0876C17.198 10.1375 17.3834 10.3515 17.3977 10.6012L17.4048 10.6797ZM9.1158 1.57029H10.9206C14.4944 1.57029 17.3977 4.47359 17.3977 8.04744V8.66092C17.2693 8.62525 17.1338 8.59672 16.9911 8.58958C16.6915 8.56818 16.3919 8.61098 16.1137 8.71085C16.021 8.74652 15.9354 8.79645 15.8712 8.86065C12.868 8.75365 10.5496 7.64797 8.98027 5.57927C8.83046 5.37954 8.58793 5.2654 8.33826 5.2868C8.08859 5.30107 7.86032 5.44374 7.73905 5.66488C6.88304 7.15576 5.34935 8.09024 3.63733 8.16158C3.34486 8.17584 3.10232 8.34705 2.98818 8.59672C2.86692 8.61098 2.75278 8.63238 2.63865 8.66805V8.05457C2.63865 4.47359 5.54909 1.57029 9.1158 1.57029ZM13.5813 18.4765C13.5671 18.4765 13.5528 18.4765 13.5457 18.4765C13.5314 18.4765 13.5171 18.4765 13.51 18.4765H2.64578V12.6342C2.78845 12.677 2.93825 12.7056 3.09519 12.7127C3.43759 13.9611 4.0582 15.0739 4.90708 15.9727C5.94856 17.0641 7.29678 17.7774 8.80193 18.0271C9.2014 18.1056 9.60801 18.1484 10.0217 18.1484C10.4284 18.1484 10.8421 18.1056 11.263 18.0271C14.1306 17.5563 16.449 15.4448 17.2265 12.6842C17.2907 12.6699 17.3549 12.6556 17.4191 12.6414V18.4837H13.5813V18.4765ZM12.3758 12.1278C11.962 12.1278 11.6268 11.7925 11.6268 11.3788V10.6939C11.6268 10.2802 11.962 9.94493 12.3758 9.94493C12.7895 9.94493 13.1248 10.2802 13.1248 10.6939V11.3788C13.1248 11.7925 12.7895 12.1278 12.3758 12.1278ZM7.67485 12.1278C7.26111 12.1278 6.92584 11.7925 6.92584 11.3788V10.6939C6.92584 10.2802 7.26111 9.94493 7.67485 9.94493C8.08859 9.94493 8.42386 10.2802 8.42386 10.6939V11.3788C8.42386 11.7925 8.08859 12.1278 7.67485 12.1278ZM12.1047 13.8398C12.3972 14.1323 12.3972 14.6031 12.1047 14.8955C11.5483 15.4519 10.8064 15.7587 10.0217 15.7587C9.23707 15.7587 8.49519 15.4519 7.93879 14.8955C7.64631 14.6031 7.64631 14.1323 7.93879 13.8398C8.23126 13.5473 8.7092 13.5473 8.99453 13.8398C9.2656 14.1109 9.62941 14.2607 10.0146 14.2607C10.3998 14.2607 10.7636 14.1109 11.0347 13.8398C11.3343 13.5473 11.8122 13.5473 12.1047 13.8398ZM14.8511 12.8768C14.8511 13.2905 14.5158 13.6258 14.1021 13.6258H13.4957C13.082 13.6258 12.7467 13.2905 12.7467 12.8768C12.7467 12.463 13.082 12.1278 13.4957 12.1278H14.1021C14.5158 12.1278 14.8511 12.463 14.8511 12.8768ZM7.29678 12.8768C7.29678 13.2905 6.9615 13.6258 6.54777 13.6258H5.94142C5.52769 13.6258 5.19241 13.2905 5.19241 12.8768C5.19241 12.463 5.52769 12.1278 5.94142 12.1278H6.54777C6.9615 12.1278 7.29678 12.463 7.29678 12.8768Z" fill="#828282"/>
</svg>
